<svg width="323" height="80" viewBox="0 0 323 80" fill="none" xmlns="http://www.w3.org/2000/svg">
<path d="M75.4531 18V6.54688H78.9141L80.9922 14.3594L83.0469 6.54688H86.5156V18H84.3672V8.98438L82.0938 18H79.8672L77.6016 8.98438V18H75.4531ZM93.6016 15.3594L95.7891 15.7266C95.5078 16.5286 95.0625 17.1406 94.4531 17.5625C93.849 17.9792 93.0911 18.1875 92.1797 18.1875C90.737 18.1875 89.6693 17.7161 88.9766 16.7734C88.4297 16.0182 88.1562 15.0651 88.1562 13.9141C88.1562 12.5391 88.5156 11.4635 89.2344 10.6875C89.9531 9.90625 90.862 9.51562 91.9609 9.51562C93.1953 9.51562 94.1693 9.92448 94.8828 10.7422C95.5964 11.5547 95.9375 12.8021 95.9062 14.4844H90.4062C90.4219 15.1354 90.599 15.6432 90.9375 16.0078C91.276 16.3672 91.6979 16.5469 92.2031 16.5469C92.5469 16.5469 92.8359 16.4531 93.0703 16.2656C93.3047 16.0781 93.4818 15.776 93.6016 15.3594ZM93.7266 13.1406C93.7109 12.5052 93.5469 12.0234 93.2344 11.6953C92.9219 11.362 92.5417 11.1953 92.0938 11.1953C91.6146 11.1953 91.2188 11.3698 90.9062 11.7188C90.5938 12.0677 90.4401 12.5417 90.4453 13.1406H93.7266ZM105.25 18H103.055V13.7656C103.055 12.8698 103.008 12.2917 102.914 12.0312C102.82 11.7656 102.667 11.5599 102.453 11.4141C102.245 11.2682 101.992 11.1953 101.695 11.1953C101.315 11.1953 100.974 11.2995 100.672 11.5078C100.37 11.7161 100.161 11.9922 100.047 12.3359C99.9375 12.6797 99.8828 13.3151 99.8828 14.2422V18H97.6875V9.70312H99.7266V10.9219C100.451 9.98438 101.362 9.51562 102.461 9.51562C102.945 9.51562 103.388 9.60417 103.789 9.78125C104.19 9.95312 104.492 10.1745 104.695 10.4453C104.904 10.7161 105.047 11.0234 105.125 11.3672C105.208 11.7109 105.25 12.2031 105.25 12.8438V18ZM107.281 18.5469L109.789 18.8516C109.831 19.1432 109.927 19.3438 110.078 19.4531C110.286 19.6094 110.615 19.6875 111.062 19.6875C111.635 19.6875 112.065 19.6016 112.352 19.4297C112.544 19.3151 112.69 19.1302 112.789 18.875C112.857 18.6927 112.891 18.3568 112.891 17.8672V16.6562C112.234 17.5521 111.406 18 110.406 18C109.292 18 108.409 17.5286 107.758 16.5859C107.247 15.8411 106.992 14.9141 106.992 13.8047C106.992 12.4141 107.326 11.3516 107.992 10.6172C108.664 9.88281 109.497 9.51562 110.492 9.51562C111.518 9.51562 112.365 9.96615 113.031 10.8672V9.70312H115.086V17.1484C115.086 18.1276 115.005 18.8594 114.844 19.3438C114.682 19.8281 114.456 20.2083 114.164 20.4844C113.872 20.7604 113.482 20.9766 112.992 21.1328C112.508 21.2891 111.893 21.3672 111.148 21.3672C109.742 21.3672 108.745 21.125 108.156 20.6406C107.568 20.1615 107.273 19.5521 107.273 18.8125C107.273 18.7396 107.276 18.651 107.281 18.5469ZM109.242 13.6797C109.242 14.5599 109.411 15.2057 109.75 15.6172C110.094 16.0234 110.516 16.2266 111.016 16.2266C111.552 16.2266 112.005 16.0182 112.375 15.6016C112.745 15.1797 112.93 14.5573 112.93 13.7344C112.93 12.875 112.753 12.237 112.398 11.8203C112.044 11.4036 111.596 11.1953 111.055 11.1953C110.529 11.1953 110.094 11.401 109.75 11.8125C109.411 12.2188 109.242 12.8411 109.242 13.6797ZM119.453 6.54688V10.7578C120.161 9.92969 121.008 9.51562 121.992 9.51562C122.497 9.51562 122.953 9.60938 123.359 9.79688C123.766 9.98438 124.07 10.224 124.273 10.5156C124.482 10.8073 124.622 11.1302 124.695 11.4844C124.773 11.8385 124.812 12.388 124.812 13.1328V18H122.617V13.6172C122.617 12.7474 122.576 12.1953 122.492 11.9609C122.409 11.7266 122.26 11.5417 122.047 11.4062C121.839 11.2656 121.576 11.1953 121.258 11.1953C120.893 11.1953 120.568 11.2839 120.281 11.4609C119.995 11.638 119.784 11.9062 119.648 12.2656C119.518 12.6198 119.453 13.1458 119.453 13.8438V18H117.258V6.54688H119.453ZM128.688 12.2344L126.695 11.875C126.919 11.0729 127.305 10.4792 127.852 10.0938C128.398 9.70833 129.211 9.51562 130.289 9.51562C131.268 9.51562 131.997 9.63281 132.477 9.86719C132.956 10.0964 133.292 10.3906 133.484 10.75C133.682 11.1042 133.781 11.7578 133.781 12.7109L133.758 15.2734C133.758 16.0026 133.792 16.5417 133.859 16.8906C133.932 17.2344 134.065 17.6042 134.258 18H132.086C132.029 17.8542 131.958 17.638 131.875 17.3516C131.839 17.2214 131.812 17.1354 131.797 17.0938C131.422 17.4583 131.021 17.7318 130.594 17.9141C130.167 18.0964 129.711 18.1875 129.227 18.1875C128.372 18.1875 127.698 17.9557 127.203 17.4922C126.714 17.0286 126.469 16.4427 126.469 15.7344C126.469 15.2656 126.581 14.849 126.805 14.4844C127.029 14.1146 127.341 13.8333 127.742 13.6406C128.148 13.4427 128.732 13.2708 129.492 13.125C130.518 12.9323 131.229 12.7526 131.625 12.5859V12.3672C131.625 11.9453 131.521 11.6458 131.312 11.4688C131.104 11.2865 130.711 11.1953 130.133 11.1953C129.742 11.1953 129.438 11.2734 129.219 11.4297C129 11.5807 128.823 11.849 128.688 12.2344ZM131.625 14.0156C131.344 14.1094 130.898 14.2214 130.289 14.3516C129.68 14.4818 129.281 14.6094 129.094 14.7344C128.807 14.9375 128.664 15.1953 128.664 15.5078C128.664 15.8151 128.779 16.0807 129.008 16.3047C129.237 16.5286 129.529 16.6406 129.883 16.6406C130.279 16.6406 130.656 16.5104 131.016 16.25C131.281 16.0521 131.456 15.8099 131.539 15.5234C131.596 15.3359 131.625 14.9792 131.625 14.4531V14.0156ZM135.891 9.70312H137.938V10.9219C138.203 10.5052 138.562 10.1667 139.016 9.90625C139.469 9.64583 139.971 9.51562 140.523 9.51562C141.487 9.51562 142.305 9.89323 142.977 10.6484C143.648 11.4036 143.984 12.4557 143.984 13.8047C143.984 15.1901 143.646 16.2682 142.969 17.0391C142.292 17.8047 141.471 18.1875 140.508 18.1875C140.049 18.1875 139.633 18.0964 139.258 17.9141C138.888 17.7318 138.497 17.4193 138.086 16.9766V21.1562H135.891V9.70312ZM138.062 13.7109C138.062 14.6432 138.247 15.3333 138.617 15.7812C138.987 16.224 139.438 16.4453 139.969 16.4453C140.479 16.4453 140.904 16.2422 141.242 15.8359C141.581 15.4245 141.75 14.7526 141.75 13.8203C141.75 12.9505 141.576 12.3047 141.227 11.8828C140.878 11.4609 140.445 11.25 139.93 11.25C139.393 11.25 138.948 11.4583 138.594 11.875C138.24 12.2865 138.062 12.8984 138.062 13.7109ZM151.195 18V16.7578C150.893 17.2005 150.495 17.5495 150 17.8047C149.51 18.0599 148.992 18.1875 148.445 18.1875C147.888 18.1875 147.388 18.0651 146.945 17.8203C146.503 17.5755 146.182 17.2318 145.984 16.7891C145.786 16.3464 145.688 15.7344 145.688 14.9531V9.70312H147.883V13.5156C147.883 14.6823 147.922 15.3984 148 15.6641C148.083 15.9245 148.232 16.1328 148.445 16.2891C148.659 16.4401 148.93 16.5156 149.258 16.5156C149.633 16.5156 149.969 16.4141 150.266 16.2109C150.562 16.0026 150.766 15.7474 150.875 15.4453C150.984 15.138 151.039 14.3906 151.039 13.2031V9.70312H153.234V18H151.195ZM154.742 15.6328L156.945 15.2969C157.039 15.724 157.229 16.0495 157.516 16.2734C157.802 16.4922 158.203 16.6016 158.719 16.6016C159.286 16.6016 159.714 16.4974 160 16.2891C160.193 16.1432 160.289 15.9479 160.289 15.7031C160.289 15.5365 160.237 15.3984 160.133 15.2891C160.023 15.1849 159.779 15.0885 159.398 15C157.628 14.6094 156.505 14.2526 156.031 13.9297C155.375 13.4818 155.047 12.8594 155.047 12.0625C155.047 11.3438 155.331 10.7396 155.898 10.25C156.466 9.76042 157.346 9.51562 158.539 9.51562C159.674 9.51562 160.518 9.70052 161.07 10.0703C161.622 10.4401 162.003 10.987 162.211 11.7109L160.141 12.0938C160.052 11.7708 159.883 11.5234 159.633 11.3516C159.388 11.1797 159.036 11.0938 158.578 11.0938C158 11.0938 157.586 11.1745 157.336 11.3359C157.169 11.4505 157.086 11.599 157.086 11.7812C157.086 11.9375 157.159 12.0703 157.305 12.1797C157.503 12.3255 158.185 12.5312 159.352 12.7969C160.523 13.0625 161.341 13.388 161.805 13.7734C162.263 14.1641 162.492 14.7083 162.492 15.4062C162.492 16.1667 162.174 16.8203 161.539 17.3672C160.904 17.9141 159.964 18.1875 158.719 18.1875C157.589 18.1875 156.693 17.9583 156.031 17.5C155.375 17.0417 154.945 16.4193 154.742 15.6328ZM168.883 6.54688H173.109C174.062 6.54688 174.789 6.61979 175.289 6.76562C175.961 6.96354 176.536 7.3151 177.016 7.82031C177.495 8.32552 177.859 8.94531 178.109 9.67969C178.359 10.4089 178.484 11.3099 178.484 12.3828C178.484 13.3255 178.367 14.138 178.133 14.8203C177.846 15.6536 177.438 16.3281 176.906 16.8438C176.505 17.2344 175.964 17.5391 175.281 17.7578C174.771 17.9193 174.089 18 173.234 18H168.883V6.54688ZM171.195 8.48438V16.0703H172.922C173.568 16.0703 174.034 16.0339 174.32 15.9609C174.695 15.8672 175.005 15.7083 175.25 15.4844C175.5 15.2604 175.703 14.8932 175.859 14.3828C176.016 13.8672 176.094 13.1667 176.094 12.2812C176.094 11.3958 176.016 10.7161 175.859 10.2422C175.703 9.76823 175.484 9.39844 175.203 9.13281C174.922 8.86719 174.565 8.6875 174.133 8.59375C173.81 8.52083 173.177 8.48438 172.234 8.48438H171.195ZM182.078 12.2344L180.086 11.875C180.31 11.0729 180.695 10.4792 181.242 10.0938C181.789 9.70833 182.602 9.51562 183.68 9.51562C184.659 9.51562 185.388 9.63281 185.867 9.86719C186.346 10.0964 186.682 10.3906 186.875 10.75C187.073 11.1042 187.172 11.7578 187.172 12.7109L187.148 15.2734C187.148 16.0026 187.182 16.5417 187.25 16.8906C187.323 17.2344 187.456 17.6042 187.648 18H185.477C185.419 17.8542 185.349 17.638 185.266 17.3516C185.229 17.2214 185.203 17.1354 185.188 17.0938C184.812 17.4583 184.411 17.7318 183.984 17.9141C183.557 18.0964 183.102 18.1875 182.617 18.1875C181.763 18.1875 181.089 17.9557 180.594 17.4922C180.104 17.0286 179.859 16.4427 179.859 15.7344C179.859 15.2656 179.971 14.849 180.195 14.4844C180.419 14.1146 180.732 13.8333 181.133 13.6406C181.539 13.4427 182.122 13.2708 182.883 13.125C183.909 12.9323 184.62 12.7526 185.016 12.5859V12.3672C185.016 11.9453 184.911 11.6458 184.703 11.4688C184.495 11.2865 184.102 11.1953 183.523 11.1953C183.133 11.1953 182.828 11.2734 182.609 11.4297C182.391 11.5807 182.214 11.849 182.078 12.2344ZM185.016 14.0156C184.734 14.1094 184.289 14.2214 183.68 14.3516C183.07 14.4818 182.672 14.6094 182.484 14.7344C182.198 14.9375 182.055 15.1953 182.055 15.5078C182.055 15.8151 182.169 16.0807 182.398 16.3047C182.628 16.5286 182.919 16.6406 183.273 16.6406C183.669 16.6406 184.047 16.5104 184.406 16.25C184.672 16.0521 184.846 15.8099 184.93 15.5234C184.987 15.3359 185.016 14.9792 185.016 14.4531V14.0156ZM193.148 9.70312V11.4531H191.648V14.7969C191.648 15.474 191.661 15.8698 191.688 15.9844C191.719 16.0938 191.784 16.1849 191.883 16.2578C191.987 16.3307 192.112 16.3672 192.258 16.3672C192.461 16.3672 192.755 16.2969 193.141 16.1562L193.328 17.8594C192.818 18.0781 192.24 18.1875 191.594 18.1875C191.198 18.1875 190.841 18.1224 190.523 17.9922C190.206 17.8568 189.971 17.6849 189.82 17.4766C189.674 17.263 189.573 16.9766 189.516 16.6172C189.469 16.362 189.445 15.8464 189.445 15.0703V11.4531H188.438V9.70312H189.445V8.05469L191.648 6.77344V9.70312H193.148ZM196.312 12.2344L194.32 11.875C194.544 11.0729 194.93 10.4792 195.477 10.0938C196.023 9.70833 196.836 9.51562 197.914 9.51562C198.893 9.51562 199.622 9.63281 200.102 9.86719C200.581 10.0964 200.917 10.3906 201.109 10.75C201.307 11.1042 201.406 11.7578 201.406 12.7109L201.383 15.2734C201.383 16.0026 201.417 16.5417 201.484 16.8906C201.557 17.2344 201.69 17.6042 201.883 18H199.711C199.654 17.8542 199.583 17.638 199.5 17.3516C199.464 17.2214 199.438 17.1354 199.422 17.0938C199.047 17.4583 198.646 17.7318 198.219 17.9141C197.792 18.0964 197.336 18.1875 196.852 18.1875C195.997 18.1875 195.323 17.9557 194.828 17.4922C194.339 17.0286 194.094 16.4427 194.094 15.7344C194.094 15.2656 194.206 14.849 194.43 14.4844C194.654 14.1146 194.966 13.8333 195.367 13.6406C195.773 13.4427 196.357 13.2708 197.117 13.125C198.143 12.9323 198.854 12.7526 199.25 12.5859V12.3672C199.25 11.9453 199.146 11.6458 198.938 11.4688C198.729 11.2865 198.336 11.1953 197.758 11.1953C197.367 11.1953 197.062 11.2734 196.844 11.4297C196.625 11.5807 196.448 11.849 196.312 12.2344ZM199.25 14.0156C198.969 14.1094 198.523 14.2214 197.914 14.3516C197.305 14.4818 196.906 14.6094 196.719 14.7344C196.432 14.9375 196.289 15.1953 196.289 15.5078C196.289 15.8151 196.404 16.0807 196.633 16.3047C196.862 16.5286 197.154 16.6406 197.508 16.6406C197.904 16.6406 198.281 16.5104 198.641 16.25C198.906 16.0521 199.081 15.8099 199.164 15.5234C199.221 15.3359 199.25 14.9792 199.25 14.4531V14.0156ZM208.016 18V6.54688H211.477L213.555 14.3594L215.609 6.54688H219.078V18H216.93V8.98438L214.656 18H212.43L210.164 8.98438V18H208.016ZM220.852 13.7344C220.852 13.0052 221.031 12.2995 221.391 11.6172C221.75 10.9349 222.258 10.4141 222.914 10.0547C223.576 9.69531 224.312 9.51562 225.125 9.51562C226.38 9.51562 227.409 9.92448 228.211 10.7422C229.013 11.5547 229.414 12.5833 229.414 13.8281C229.414 15.0833 229.008 16.125 228.195 16.9531C227.388 17.776 226.37 18.1875 225.141 18.1875C224.38 18.1875 223.654 18.0156 222.961 17.6719C222.273 17.3281 221.75 16.8255 221.391 16.1641C221.031 15.4974 220.852 14.6875 220.852 13.7344ZM223.102 13.8516C223.102 14.6745 223.297 15.3047 223.688 15.7422C224.078 16.1797 224.56 16.3984 225.133 16.3984C225.706 16.3984 226.185 16.1797 226.57 15.7422C226.961 15.3047 227.156 14.6693 227.156 13.8359C227.156 13.0234 226.961 12.3984 226.57 11.9609C226.185 11.5234 225.706 11.3047 225.133 11.3047C224.56 11.3047 224.078 11.5234 223.688 11.9609C223.297 12.3984 223.102 13.0286 223.102 13.8516ZM231.047 18V6.54688H233.242V10.6719C233.919 9.90104 234.721 9.51562 235.648 9.51562C236.659 9.51562 237.495 9.88281 238.156 10.6172C238.818 11.3464 239.148 12.3958 239.148 13.7656C239.148 15.1823 238.81 16.2734 238.133 17.0391C237.461 17.8047 236.643 18.1875 235.68 18.1875C235.206 18.1875 234.737 18.0703 234.273 17.8359C233.815 17.5964 233.419 17.2448 233.086 16.7812V18H231.047ZM233.227 13.6719C233.227 14.5312 233.362 15.1667 233.633 15.5781C234.013 16.1615 234.518 16.4531 235.148 16.4531C235.633 16.4531 236.044 16.2474 236.383 15.8359C236.727 15.4193 236.898 14.7656 236.898 13.875C236.898 12.9271 236.727 12.2448 236.383 11.8281C236.039 11.4062 235.599 11.1953 235.062 11.1953C234.536 11.1953 234.099 11.401 233.75 11.8125C233.401 12.2188 233.227 12.8385 233.227 13.6719ZM240.922 8.57812V6.54688H243.117V8.57812H240.922ZM240.922 18V9.70312H243.117V18H240.922ZM245.375 18V6.54688H247.57V18H245.375Z" fill="black"/>
<path d="M38.5231 51.99C38.5604 52.438 38.6584 52.8207 38.8171 53.138C38.9851 53.446 39.1951 53.698 39.4471 53.894C39.7084 54.09 40.0071 54.2347 40.3431 54.328C40.6791 54.412 41.0384 54.454 41.4211 54.454C41.8691 54.454 42.2564 54.398 42.5831 54.286C42.9097 54.174 43.1757 54.0247 43.3811 53.838C43.5864 53.642 43.7357 53.418 43.8291 53.166C43.9317 52.914 43.9831 52.648 43.9831 52.368C43.9831 51.976 43.8944 51.6587 43.7171 51.416C43.5397 51.1733 43.3064 50.9773 43.0171 50.828C42.7371 50.6693 42.4104 50.5433 42.0371 50.45C41.6731 50.3567 41.2951 50.268 40.9031 50.184C40.5204 50.0907 40.1424 49.9833 39.7691 49.862C39.4051 49.7407 39.0784 49.5773 38.7891 49.372C38.5091 49.1667 38.2804 48.9053 38.1031 48.588C37.9257 48.2613 37.8371 47.8507 37.8371 47.356C37.8371 47.0107 37.9071 46.6747 38.0471 46.348C38.1964 46.0213 38.4111 45.732 38.6911 45.48C38.9804 45.228 39.3397 45.0273 39.7691 44.878C40.1984 44.7287 40.6931 44.654 41.2531 44.654C41.8224 44.654 42.3171 44.7333 42.7371 44.892C43.1664 45.0507 43.5211 45.27 43.8011 45.55C44.0811 45.8207 44.2911 46.138 44.4311 46.502C44.5711 46.866 44.6411 47.2533 44.6411 47.664H43.7311C43.7311 47.2813 43.6611 46.95 43.5211 46.67C43.3904 46.39 43.2084 46.1613 42.9751 45.984C42.7417 45.8067 42.4757 45.676 42.1771 45.592C41.8784 45.508 41.5704 45.466 41.2531 45.466C40.7677 45.466 40.3571 45.536 40.0211 45.676C39.6944 45.8067 39.4331 45.9793 39.2371 46.194C39.0411 46.4087 38.9057 46.6467 38.8311 46.908C38.7564 47.1693 38.7424 47.4307 38.7891 47.692C38.8451 48.0187 38.9757 48.28 39.1811 48.476C39.3864 48.672 39.6384 48.8353 39.9371 48.966C40.2357 49.0873 40.5624 49.19 40.9171 49.274C41.2811 49.3487 41.6497 49.4327 42.0231 49.526C42.3964 49.61 42.7557 49.7127 43.1011 49.834C43.4557 49.9553 43.7684 50.1187 44.0391 50.324C44.3097 50.5293 44.5244 50.7953 44.6831 51.122C44.8511 51.4393 44.9351 51.8407 44.9351 52.326C44.9351 53.2593 44.6131 53.9827 43.9691 54.496C43.3251 55.0093 42.4197 55.266 41.2531 55.266C40.7304 55.266 40.2451 55.196 39.7971 55.056C39.3491 54.9253 38.9617 54.7247 38.6351 54.454C38.3084 54.174 38.0517 53.8333 37.8651 53.432C37.6877 53.0213 37.5991 52.5407 37.5991 51.99H38.5231ZM51.8137 50.87C51.8137 50.5153 51.7623 50.184 51.6597 49.876C51.5663 49.5587 51.4217 49.288 51.2257 49.064C51.039 48.8307 50.801 48.6487 50.5117 48.518C50.2223 48.378 49.891 48.308 49.5177 48.308C49.1443 48.308 48.813 48.378 48.5237 48.518C48.2437 48.658 48.001 48.8447 47.7957 49.078C47.5997 49.3113 47.441 49.582 47.3197 49.89C47.1983 50.198 47.119 50.5247 47.0817 50.87H51.8137ZM47.0817 51.57C47.0817 51.962 47.133 52.3353 47.2357 52.69C47.3383 53.0353 47.4877 53.3387 47.6837 53.6C47.889 53.852 48.1457 54.0573 48.4537 54.216C48.7617 54.3653 49.1163 54.44 49.5177 54.44C50.0683 54.44 50.5397 54.2953 50.9317 54.006C51.3237 53.7167 51.585 53.306 51.7157 52.774H52.6537C52.551 53.1193 52.4157 53.4413 52.2477 53.74C52.0797 54.0293 51.8697 54.286 51.6177 54.51C51.3657 54.7247 51.067 54.8927 50.7217 55.014C50.3763 55.1353 49.975 55.196 49.5177 55.196C48.939 55.196 48.4397 55.098 48.0197 54.902C47.5997 54.706 47.2543 54.44 46.9837 54.104C46.713 53.7587 46.5123 53.3573 46.3817 52.9C46.251 52.4333 46.1857 51.934 46.1857 51.402C46.1857 50.87 46.2603 50.3707 46.4097 49.904C46.5683 49.4373 46.7877 49.0313 47.0677 48.686C47.357 48.3313 47.707 48.056 48.1177 47.86C48.5283 47.6547 48.995 47.552 49.5177 47.552C50.5163 47.552 51.3003 47.8973 51.8697 48.588C52.439 49.2693 52.719 50.2633 52.7097 51.57H47.0817ZM56.891 55.028C56.7883 55.0467 56.653 55.0793 56.485 55.126C56.317 55.1727 56.1303 55.196 55.925 55.196C55.505 55.196 55.183 55.0933 54.959 54.888C54.7443 54.6733 54.637 54.2953 54.637 53.754V48.448H53.615V47.748H54.637V45.732H55.477V47.748H56.835V48.448H55.477V53.418C55.477 53.5953 55.4816 53.7493 55.491 53.88C55.5003 54.0107 55.5283 54.118 55.575 54.202C55.6216 54.286 55.6916 54.3467 55.785 54.384C55.8876 54.4213 56.0276 54.44 56.205 54.44C56.317 54.44 56.429 54.4307 56.541 54.412C56.6623 54.3933 56.779 54.37 56.891 54.342V55.028ZM63.4894 50.87C63.4894 50.5153 63.4381 50.184 63.3354 49.876C63.2421 49.5587 63.0974 49.288 62.9014 49.064C62.7148 48.8307 62.4768 48.6487 62.1874 48.518C61.8981 48.378 61.5668 48.308 61.1934 48.308C60.8201 48.308 60.4888 48.378 60.1994 48.518C59.9194 48.658 59.6768 48.8447 59.4714 49.078C59.2754 49.3113 59.1168 49.582 58.9954 49.89C58.8741 50.198 58.7948 50.5247 58.7574 50.87H63.4894ZM58.7574 51.57C58.7574 51.962 58.8088 52.3353 58.9114 52.69C59.0141 53.0353 59.1634 53.3387 59.3594 53.6C59.5648 53.852 59.8214 54.0573 60.1294 54.216C60.4374 54.3653 60.7921 54.44 61.1934 54.44C61.7441 54.44 62.2154 54.2953 62.6074 54.006C62.9994 53.7167 63.2608 53.306 63.3914 52.774H64.3294C64.2268 53.1193 64.0914 53.4413 63.9234 53.74C63.7554 54.0293 63.5454 54.286 63.2934 54.51C63.0414 54.7247 62.7428 54.8927 62.3974 55.014C62.0521 55.1353 61.6508 55.196 61.1934 55.196C60.6148 55.196 60.1154 55.098 59.6954 54.902C59.2754 54.706 58.9301 54.44 58.6594 54.104C58.3888 53.7587 58.1881 53.3573 58.0574 52.9C57.9268 52.4333 57.8614 51.934 57.8614 51.402C57.8614 50.87 57.9361 50.3707 58.0854 49.904C58.2441 49.4373 58.4634 49.0313 58.7434 48.686C59.0328 48.3313 59.3828 48.056 59.7934 47.86C60.2041 47.6547 60.6708 47.552 61.1934 47.552C62.1921 47.552 62.9761 47.8973 63.5454 48.588C64.1148 49.2693 64.3948 50.2633 64.3854 51.57H58.7574ZM66.1447 55V44.92H66.9847V55H66.1447ZM73.8683 51.192C73.5136 51.3413 73.1543 51.4393 72.7903 51.486C72.4263 51.5327 72.0623 51.57 71.6983 51.598C71.0543 51.6447 70.5503 51.7893 70.1863 52.032C69.8316 52.2747 69.6543 52.6433 69.6543 53.138C69.6543 53.362 69.6963 53.558 69.7803 53.726C69.8736 53.8847 69.9903 54.02 70.1303 54.132C70.2796 54.2347 70.4476 54.314 70.6343 54.37C70.8303 54.4167 71.0263 54.44 71.2223 54.44C71.5583 54.44 71.8849 54.398 72.2023 54.314C72.5196 54.23 72.7996 54.104 73.0423 53.936C73.2943 53.7587 73.4949 53.5393 73.6443 53.278C73.7936 53.0073 73.8683 52.69 73.8683 52.326V51.192ZM72.4543 50.772C72.6129 50.7533 72.7996 50.7253 73.0143 50.688C73.2383 50.6507 73.4203 50.5993 73.5603 50.534C73.7003 50.4687 73.7843 50.3613 73.8123 50.212C73.8496 50.0533 73.8683 49.9087 73.8683 49.778C73.8683 49.3487 73.7283 48.9987 73.4483 48.728C73.1776 48.448 72.7156 48.308 72.0623 48.308C71.7729 48.308 71.5069 48.336 71.2643 48.392C71.0216 48.4387 70.8069 48.5273 70.6203 48.658C70.4429 48.7793 70.2936 48.9473 70.1723 49.162C70.0603 49.3673 69.9856 49.6287 69.9483 49.946H69.0943C69.1223 49.5167 69.2203 49.1527 69.3883 48.854C69.5563 48.546 69.7709 48.2987 70.0323 48.112C70.3029 47.916 70.6109 47.776 70.9563 47.692C71.3109 47.5987 71.6843 47.552 72.0763 47.552C72.4403 47.552 72.7809 47.594 73.0983 47.678C73.4249 47.7527 73.7049 47.8787 73.9383 48.056C74.1809 48.224 74.3676 48.4527 74.4983 48.742C74.6383 49.0313 74.7083 49.386 74.7083 49.806V53.754C74.7083 54.0807 74.7643 54.2907 74.8763 54.384C74.9976 54.468 75.2356 54.4447 75.5903 54.314V54.972C75.5249 54.9907 75.4269 55.0187 75.2963 55.056C75.1749 55.0933 75.0536 55.112 74.9323 55.112C74.8016 55.112 74.6756 55.098 74.5543 55.07C74.4143 55.0513 74.3023 55.0093 74.2183 54.944C74.1343 54.8693 74.0643 54.7853 74.0083 54.692C73.9616 54.5893 73.9289 54.482 73.9103 54.37C73.8916 54.2487 73.8823 54.1227 73.8823 53.992C73.5276 54.384 73.1216 54.6827 72.6643 54.888C72.2069 55.0933 71.7123 55.196 71.1803 55.196C70.8629 55.196 70.5549 55.154 70.2563 55.07C69.9669 54.986 69.7103 54.8553 69.4863 54.678C69.2623 54.5007 69.0849 54.286 68.9543 54.034C68.8236 53.7727 68.7583 53.4647 68.7583 53.11C68.7583 51.878 69.6029 51.15 71.2923 50.926L72.4543 50.772ZM76.9016 55V44.92H77.7416V48.756C78.0776 48.4013 78.4229 48.112 78.7776 47.888C79.1416 47.664 79.5756 47.552 80.0796 47.552C80.5276 47.552 80.9429 47.6313 81.3256 47.79C81.7082 47.9393 82.0302 48.2053 82.2916 48.588C82.4689 48.8493 82.5716 49.12 82.5996 49.4C82.6369 49.6707 82.6556 49.9553 82.6556 50.254V55H81.8156V50.268C81.8156 49.6147 81.6709 49.1247 81.3816 48.798C81.0922 48.4713 80.6116 48.308 79.9396 48.308C79.6782 48.308 79.4402 48.35 79.2256 48.434C79.0109 48.5087 78.8149 48.6113 78.6376 48.742C78.4696 48.8727 78.3249 49.022 78.2036 49.19C78.0822 49.358 77.9889 49.5353 77.9236 49.722C77.8396 49.9553 77.7882 50.1793 77.7696 50.394C77.7509 50.6087 77.7416 50.842 77.7416 51.094V55H76.9016ZM94.1773 51.346C94.1773 50.9353 94.1213 50.548 94.0093 50.184C93.8973 49.8107 93.734 49.4887 93.5193 49.218C93.314 48.938 93.0573 48.7187 92.7493 48.56C92.4507 48.392 92.11 48.308 91.7273 48.308C91.2887 48.308 90.9107 48.3967 90.5933 48.574C90.276 48.742 90.0147 48.9753 89.8093 49.274C89.604 49.5727 89.4547 49.9227 89.3613 50.324C89.268 50.716 89.2307 51.1407 89.2493 51.598C89.2493 52.0553 89.31 52.4613 89.4313 52.816C89.562 53.1613 89.7393 53.4553 89.9633 53.698C90.1873 53.9407 90.4487 54.1273 90.7473 54.258C91.046 54.3793 91.3727 54.44 91.7273 54.44C92.1193 54.44 92.4693 54.3607 92.7773 54.202C93.0853 54.0433 93.342 53.8287 93.5473 53.558C93.7527 53.278 93.9067 52.9513 94.0093 52.578C94.1213 52.1953 94.1773 51.7847 94.1773 51.346ZM94.1773 44.92H95.0173V55H94.1773V53.726H94.1493C94.028 53.9687 93.8693 54.1833 93.6733 54.37C93.4867 54.5473 93.2767 54.6967 93.0433 54.818C92.8193 54.9393 92.586 55.0327 92.3433 55.098C92.1007 55.1633 91.8627 55.196 91.6293 55.196C91.0413 55.196 90.542 55.098 90.1313 54.902C89.7207 54.706 89.38 54.44 89.1093 54.104C88.848 53.7587 88.6567 53.3527 88.5353 52.886C88.414 52.4193 88.3533 51.92 88.3533 51.388C88.3533 50.884 88.4187 50.3987 88.5493 49.932C88.68 49.4653 88.876 49.0593 89.1373 48.714C89.408 48.3593 89.744 48.0793 90.1453 47.874C90.556 47.6593 91.0367 47.552 91.5873 47.552C92.1007 47.552 92.5907 47.6687 93.0573 47.902C93.5333 48.126 93.9067 48.462 94.1773 48.91V44.92ZM97.0158 55V47.748H97.8558V55H97.0158ZM96.9738 46.166V44.92H97.8978V46.166H96.9738ZM99.9934 55V44.92H100.833V48.756C101.169 48.4013 101.515 48.112 101.869 47.888C102.233 47.664 102.667 47.552 103.171 47.552C103.619 47.552 104.035 47.6313 104.417 47.79C104.8 47.9393 105.122 48.2053 105.383 48.588C105.561 48.8493 105.663 49.12 105.691 49.4C105.729 49.6707 105.747 49.9553 105.747 50.254V55H104.907V50.268C104.907 49.6147 104.763 49.1247 104.473 48.798C104.184 48.4713 103.703 48.308 103.031 48.308C102.77 48.308 102.532 48.35 102.317 48.434C102.103 48.5087 101.907 48.6113 101.729 48.742C101.561 48.8727 101.417 49.022 101.295 49.19C101.174 49.358 101.081 49.5353 101.015 49.722C100.931 49.9553 100.88 50.1793 100.861 50.394C100.843 50.6087 100.833 50.842 100.833 51.094V55H99.9934ZM112.519 51.192C112.164 51.3413 111.805 51.4393 111.441 51.486C111.077 51.5327 110.713 51.57 110.349 51.598C109.705 51.6447 109.201 51.7893 108.837 52.032C108.482 52.2747 108.305 52.6433 108.305 53.138C108.305 53.362 108.347 53.558 108.431 53.726C108.524 53.8847 108.641 54.02 108.781 54.132C108.93 54.2347 109.098 54.314 109.285 54.37C109.481 54.4167 109.677 54.44 109.873 54.44C110.209 54.44 110.535 54.398 110.853 54.314C111.17 54.23 111.45 54.104 111.693 53.936C111.945 53.7587 112.145 53.5393 112.295 53.278C112.444 53.0073 112.519 52.69 112.519 52.326V51.192ZM111.105 50.772C111.263 50.7533 111.45 50.7253 111.665 50.688C111.889 50.6507 112.071 50.5993 112.211 50.534C112.351 50.4687 112.435 50.3613 112.463 50.212C112.5 50.0533 112.519 49.9087 112.519 49.778C112.519 49.3487 112.379 48.9987 112.099 48.728C111.828 48.448 111.366 48.308 110.713 48.308C110.423 48.308 110.157 48.336 109.915 48.392C109.672 48.4387 109.457 48.5273 109.271 48.658C109.093 48.7793 108.944 48.9473 108.823 49.162C108.711 49.3673 108.636 49.6287 108.599 49.946H107.745C107.773 49.5167 107.871 49.1527 108.039 48.854C108.207 48.546 108.421 48.2987 108.683 48.112C108.953 47.916 109.261 47.776 109.607 47.692C109.961 47.5987 110.335 47.552 110.727 47.552C111.091 47.552 111.431 47.594 111.749 47.678C112.075 47.7527 112.355 47.8787 112.589 48.056C112.831 48.224 113.018 48.4527 113.149 48.742C113.289 49.0313 113.359 49.386 113.359 49.806V53.754C113.359 54.0807 113.415 54.2907 113.527 54.384C113.648 54.468 113.886 54.4447 114.241 54.314V54.972C114.175 54.9907 114.077 55.0187 113.947 55.056C113.825 55.0933 113.704 55.112 113.583 55.112C113.452 55.112 113.326 55.098 113.205 55.07C113.065 55.0513 112.953 55.0093 112.869 54.944C112.785 54.8693 112.715 54.7853 112.659 54.692C112.612 54.5893 112.579 54.482 112.561 54.37C112.542 54.2487 112.533 54.1227 112.533 53.992C112.178 54.384 111.772 54.6827 111.315 54.888C110.857 55.0933 110.363 55.196 109.831 55.196C109.513 55.196 109.205 55.154 108.907 55.07C108.617 54.986 108.361 54.8553 108.137 54.678C107.913 54.5007 107.735 54.286 107.605 54.034C107.474 53.7727 107.409 53.4647 107.409 53.11C107.409 51.878 108.253 51.15 109.943 50.926L111.105 50.772ZM116.49 51.402C116.49 51.8127 116.546 52.2047 116.658 52.578C116.77 52.942 116.929 53.264 117.134 53.544C117.349 53.8147 117.605 54.034 117.904 54.202C118.212 54.3607 118.557 54.44 118.94 54.44C119.369 54.44 119.743 54.356 120.06 54.188C120.387 54.0107 120.653 53.7727 120.858 53.474C121.063 53.1753 121.213 52.83 121.306 52.438C121.399 52.0367 121.437 51.6073 121.418 51.15C121.418 50.6927 121.353 50.2913 121.222 49.946C121.101 49.5913 120.928 49.2927 120.704 49.05C120.48 48.8073 120.219 48.6253 119.92 48.504C119.621 48.3733 119.295 48.308 118.94 48.308C118.548 48.308 118.198 48.3873 117.89 48.546C117.582 48.7047 117.325 48.924 117.12 49.204C116.915 49.4747 116.756 49.8013 116.644 50.184C116.541 50.5573 116.49 50.9633 116.49 51.402ZM116.49 57.856H115.65V47.748H116.49V49.022H116.518C116.639 48.7887 116.793 48.5787 116.98 48.392C117.176 48.2053 117.386 48.0513 117.61 47.93C117.843 47.8087 118.081 47.7153 118.324 47.65C118.567 47.5847 118.805 47.552 119.038 47.552C119.626 47.552 120.125 47.65 120.536 47.846C120.947 48.042 121.283 48.3127 121.544 48.658C121.815 48.994 122.011 49.3953 122.132 49.862C122.253 50.3287 122.314 50.828 122.314 51.36C122.314 51.864 122.249 52.3493 122.118 52.816C121.987 53.2827 121.787 53.6933 121.516 54.048C121.255 54.3933 120.919 54.6733 120.508 54.888C120.107 55.0933 119.631 55.196 119.08 55.196C118.567 55.196 118.072 55.084 117.596 54.86C117.129 54.6267 116.761 54.286 116.49 53.838V57.856ZM129.025 47.748H129.865V55H129.025V53.992C128.913 54.1227 128.787 54.258 128.647 54.398C128.507 54.538 128.343 54.6687 128.157 54.79C127.979 54.902 127.769 54.9953 127.527 55.07C127.284 55.154 127.004 55.196 126.687 55.196C126.201 55.196 125.795 55.1307 125.469 55C125.142 54.86 124.876 54.6687 124.671 54.426C124.475 54.1833 124.33 53.9033 124.237 53.586C124.153 53.2593 124.111 52.9047 124.111 52.522V47.748H124.951V52.508C124.951 53.1333 125.095 53.614 125.385 53.95C125.674 54.2767 126.15 54.44 126.813 54.44C127.158 54.44 127.466 54.3747 127.737 54.244C128.017 54.104 128.25 53.9127 128.437 53.67C128.623 53.4273 128.768 53.138 128.871 52.802C128.973 52.466 129.025 52.0973 129.025 51.696V47.748ZM132.38 52.732C132.511 53.3573 132.744 53.8007 133.08 54.062C133.425 54.314 133.915 54.44 134.55 54.44C134.858 54.44 135.124 54.4027 135.348 54.328C135.572 54.2533 135.754 54.1553 135.894 54.034C136.043 53.9033 136.155 53.7587 136.23 53.6C136.305 53.4413 136.342 53.2733 136.342 53.096C136.342 52.7413 136.225 52.48 135.992 52.312C135.768 52.1347 135.483 51.9993 135.138 51.906C134.793 51.8033 134.419 51.7193 134.018 51.654C133.617 51.5793 133.243 51.472 132.898 51.332C132.553 51.192 132.263 50.9913 132.03 50.73C131.806 50.4687 131.694 50.1 131.694 49.624C131.694 49.0173 131.913 48.5227 132.352 48.14C132.8 47.748 133.43 47.552 134.242 47.552C135.026 47.552 135.661 47.7293 136.146 48.084C136.641 48.4293 136.939 49.0127 137.042 49.834H136.188C136.113 49.274 135.899 48.882 135.544 48.658C135.199 48.4247 134.76 48.308 134.228 48.308C133.696 48.308 133.29 48.4247 133.01 48.658C132.73 48.882 132.59 49.1807 132.59 49.554C132.59 49.8807 132.702 50.1327 132.926 50.31C133.159 50.478 133.449 50.618 133.794 50.73C134.139 50.8327 134.513 50.926 134.914 51.01C135.315 51.094 135.689 51.2153 136.034 51.374C136.379 51.5233 136.664 51.7287 136.888 51.99C137.121 52.2513 137.238 52.6153 137.238 53.082C137.238 53.4273 137.163 53.7353 137.014 54.006C136.865 54.2673 136.659 54.4867 136.398 54.664C136.137 54.8413 135.824 54.972 135.46 55.056C135.105 55.1493 134.713 55.196 134.284 55.196C133.855 55.196 133.472 55.1307 133.136 55C132.809 54.8787 132.529 54.706 132.296 54.482C132.063 54.258 131.881 53.9967 131.75 53.698C131.619 53.3993 131.545 53.0773 131.526 52.732H132.38ZM140.332 55.42C140.332 55.8307 140.234 56.1573 140.038 56.4C139.851 56.652 139.609 56.8247 139.31 56.918V56.4C139.422 56.3253 139.529 56.2227 139.632 56.092C139.735 55.9613 139.786 55.756 139.786 55.476V55H139.31V53.768H140.332V55.42ZM152.283 51.346C152.283 50.9353 152.227 50.548 152.115 50.184C152.003 49.8107 151.839 49.4887 151.625 49.218C151.419 48.938 151.163 48.7187 150.855 48.56C150.556 48.392 150.215 48.308 149.833 48.308C149.394 48.308 149.016 48.3967 148.699 48.574C148.381 48.742 148.12 48.9753 147.915 49.274C147.709 49.5727 147.56 49.9227 147.467 50.324C147.373 50.716 147.336 51.1407 147.355 51.598C147.355 52.0553 147.415 52.4613 147.537 52.816C147.667 53.1613 147.845 53.4553 148.069 53.698C148.293 53.9407 148.554 54.1273 148.853 54.258C149.151 54.3793 149.478 54.44 149.833 54.44C150.225 54.44 150.575 54.3607 150.883 54.202C151.191 54.0433 151.447 53.8287 151.653 53.558C151.858 53.278 152.012 52.9513 152.115 52.578C152.227 52.1953 152.283 51.7847 152.283 51.346ZM152.283 44.92H153.123V55H152.283V53.726H152.255C152.133 53.9687 151.975 54.1833 151.779 54.37C151.592 54.5473 151.382 54.6967 151.149 54.818C150.925 54.9393 150.691 55.0327 150.449 55.098C150.206 55.1633 149.968 55.196 149.735 55.196C149.147 55.196 148.647 55.098 148.237 54.902C147.826 54.706 147.485 54.44 147.215 54.104C146.953 53.7587 146.762 53.3527 146.641 52.886C146.519 52.4193 146.459 51.92 146.459 51.388C146.459 50.884 146.524 50.3987 146.655 49.932C146.785 49.4653 146.981 49.0593 147.243 48.714C147.513 48.3593 147.849 48.0793 148.251 47.874C148.661 47.6593 149.142 47.552 149.693 47.552C150.206 47.552 150.696 47.6687 151.163 47.902C151.639 48.126 152.012 48.462 152.283 48.91V44.92ZM159.987 51.192C159.633 51.3413 159.273 51.4393 158.909 51.486C158.545 51.5327 158.181 51.57 157.817 51.598C157.173 51.6447 156.669 51.7893 156.305 52.032C155.951 52.2747 155.773 52.6433 155.773 53.138C155.773 53.362 155.815 53.558 155.899 53.726C155.993 53.8847 156.109 54.02 156.249 54.132C156.399 54.2347 156.567 54.314 156.753 54.37C156.949 54.4167 157.145 54.44 157.341 54.44C157.677 54.44 158.004 54.398 158.321 54.314C158.639 54.23 158.919 54.104 159.161 53.936C159.413 53.7587 159.614 53.5393 159.763 53.278C159.913 53.0073 159.987 52.69 159.987 52.326V51.192ZM158.573 50.772C158.732 50.7533 158.919 50.7253 159.133 50.688C159.357 50.6507 159.539 50.5993 159.679 50.534C159.819 50.4687 159.903 50.3613 159.931 50.212C159.969 50.0533 159.987 49.9087 159.987 49.778C159.987 49.3487 159.847 48.9987 159.567 48.728C159.297 48.448 158.835 48.308 158.181 48.308C157.892 48.308 157.626 48.336 157.383 48.392C157.141 48.4387 156.926 48.5273 156.739 48.658C156.562 48.7793 156.413 48.9473 156.291 49.162C156.179 49.3673 156.105 49.6287 156.067 49.946H155.213C155.241 49.5167 155.339 49.1527 155.507 48.854C155.675 48.546 155.89 48.2987 156.151 48.112C156.422 47.916 156.73 47.776 157.075 47.692C157.43 47.5987 157.803 47.552 158.195 47.552C158.559 47.552 158.9 47.594 159.217 47.678C159.544 47.7527 159.824 47.8787 160.057 48.056C160.3 48.224 160.487 48.4527 160.617 48.742C160.757 49.0313 160.827 49.386 160.827 49.806V53.754C160.827 54.0807 160.883 54.2907 160.995 54.384C161.117 54.468 161.355 54.4447 161.709 54.314V54.972C161.644 54.9907 161.546 55.0187 161.415 55.056C161.294 55.0933 161.173 55.112 161.051 55.112C160.921 55.112 160.795 55.098 160.673 55.07C160.533 55.0513 160.421 55.0093 160.337 54.944C160.253 54.8693 160.183 54.7853 160.127 54.692C160.081 54.5893 160.048 54.482 160.029 54.37C160.011 54.2487 160.001 54.1227 160.001 53.992C159.647 54.384 159.241 54.6827 158.783 54.888C158.326 55.0933 157.831 55.196 157.299 55.196C156.982 55.196 156.674 55.154 156.375 55.07C156.086 54.986 155.829 54.8553 155.605 54.678C155.381 54.5007 155.204 54.286 155.073 54.034C154.943 53.7727 154.877 53.4647 154.877 53.11C154.877 51.878 155.722 51.15 157.411 50.926L158.573 50.772ZM165.569 55.028C165.466 55.0467 165.331 55.0793 165.163 55.126C164.995 55.1727 164.808 55.196 164.603 55.196C164.183 55.196 163.861 55.0933 163.637 54.888C163.422 54.6733 163.315 54.2953 163.315 53.754V48.448H162.293V47.748H163.315V45.732H164.155V47.748H165.513V48.448H164.155V53.418C164.155 53.5953 164.159 53.7493 164.169 53.88C164.178 54.0107 164.206 54.118 164.253 54.202C164.299 54.286 164.369 54.3467 164.463 54.384C164.565 54.4213 164.705 54.44 164.883 54.44C164.995 54.44 165.107 54.4307 165.219 54.412C165.34 54.3933 165.457 54.37 165.569 54.342V55.028ZM171.663 51.192C171.309 51.3413 170.949 51.4393 170.585 51.486C170.221 51.5327 169.857 51.57 169.493 51.598C168.849 51.6447 168.345 51.7893 167.981 52.032C167.627 52.2747 167.449 52.6433 167.449 53.138C167.449 53.362 167.491 53.558 167.575 53.726C167.669 53.8847 167.785 54.02 167.925 54.132C168.075 54.2347 168.243 54.314 168.429 54.37C168.625 54.4167 168.821 54.44 169.017 54.44C169.353 54.44 169.68 54.398 169.997 54.314C170.315 54.23 170.595 54.104 170.837 53.936C171.089 53.7587 171.29 53.5393 171.439 53.278C171.589 53.0073 171.663 52.69 171.663 52.326V51.192ZM170.249 50.772C170.408 50.7533 170.595 50.7253 170.809 50.688C171.033 50.6507 171.215 50.5993 171.355 50.534C171.495 50.4687 171.579 50.3613 171.607 50.212C171.645 50.0533 171.663 49.9087 171.663 49.778C171.663 49.3487 171.523 48.9987 171.243 48.728C170.973 48.448 170.511 48.308 169.857 48.308C169.568 48.308 169.302 48.336 169.059 48.392C168.817 48.4387 168.602 48.5273 168.415 48.658C168.238 48.7793 168.089 48.9473 167.967 49.162C167.855 49.3673 167.781 49.6287 167.743 49.946H166.889C166.917 49.5167 167.015 49.1527 167.183 48.854C167.351 48.546 167.566 48.2987 167.827 48.112C168.098 47.916 168.406 47.776 168.751 47.692C169.106 47.5987 169.479 47.552 169.871 47.552C170.235 47.552 170.576 47.594 170.893 47.678C171.22 47.7527 171.5 47.8787 171.733 48.056C171.976 48.224 172.163 48.4527 172.293 48.742C172.433 49.0313 172.503 49.386 172.503 49.806V53.754C172.503 54.0807 172.559 54.2907 172.671 54.384C172.793 54.468 173.031 54.4447 173.385 54.314V54.972C173.32 54.9907 173.222 55.0187 173.091 55.056C172.97 55.0933 172.849 55.112 172.727 55.112C172.597 55.112 172.471 55.098 172.349 55.07C172.209 55.0513 172.097 55.0093 172.013 54.944C171.929 54.8693 171.859 54.7853 171.803 54.692C171.757 54.5893 171.724 54.482 171.705 54.37C171.687 54.2487 171.677 54.1227 171.677 53.992C171.323 54.384 170.917 54.6827 170.459 54.888C170.002 55.0933 169.507 55.196 168.975 55.196C168.658 55.196 168.35 55.154 168.051 55.07C167.762 54.986 167.505 54.8553 167.281 54.678C167.057 54.5007 166.88 54.286 166.749 54.034C166.619 53.7727 166.553 53.4647 166.553 53.11C166.553 51.878 167.398 51.15 169.087 50.926L170.249 50.772ZM179.321 55H178.481V47.748H179.321V48.84H179.349C179.564 48.42 179.872 48.1027 180.273 47.888C180.674 47.664 181.113 47.552 181.589 47.552C181.925 47.552 182.21 47.5893 182.443 47.664C182.676 47.7387 182.872 47.8413 183.031 47.972C183.199 48.0933 183.334 48.238 183.437 48.406C183.549 48.574 183.642 48.756 183.717 48.952C183.96 48.476 184.282 48.126 184.683 47.902C185.094 47.6687 185.56 47.552 186.083 47.552C186.578 47.552 186.97 47.636 187.259 47.804C187.558 47.9627 187.786 48.1773 187.945 48.448C188.104 48.7093 188.206 49.0127 188.253 49.358C188.309 49.7033 188.337 50.058 188.337 50.422V55H187.497V49.988C187.497 49.4653 187.385 49.0547 187.161 48.756C186.946 48.4573 186.54 48.308 185.943 48.308C185.635 48.308 185.336 48.378 185.047 48.518C184.767 48.6487 184.52 48.854 184.305 49.134C184.212 49.2553 184.132 49.4 184.067 49.568C184.011 49.7267 183.964 49.8947 183.927 50.072C183.89 50.2493 183.862 50.4267 183.843 50.604C183.834 50.7813 183.829 50.9447 183.829 51.094V55H182.989V49.988C182.989 49.4653 182.877 49.0547 182.653 48.756C182.438 48.4573 182.032 48.308 181.435 48.308C181.127 48.308 180.828 48.378 180.539 48.518C180.259 48.6487 180.012 48.854 179.797 49.134C179.704 49.2553 179.624 49.4 179.559 49.568C179.503 49.7267 179.456 49.8947 179.419 50.072C179.382 50.2493 179.354 50.4267 179.335 50.604C179.326 50.7813 179.321 50.9447 179.321 51.094V55ZM193.139 55.196C192.672 55.1867 192.234 55.1027 191.823 54.944C191.422 54.7853 191.067 54.5473 190.759 54.23C190.46 53.9127 190.222 53.516 190.045 53.04C189.868 52.564 189.779 52.0087 189.779 51.374C189.779 50.842 189.849 50.3473 189.989 49.89C190.129 49.4233 190.339 49.0173 190.619 48.672C190.899 48.3267 191.249 48.056 191.669 47.86C192.089 47.6547 192.579 47.552 193.139 47.552C193.708 47.552 194.203 47.6547 194.623 47.86C195.043 48.056 195.393 48.3267 195.673 48.672C195.953 49.008 196.158 49.4093 196.289 49.876C196.429 50.3427 196.499 50.842 196.499 51.374C196.499 51.9527 196.42 52.4753 196.261 52.942C196.102 53.4087 195.874 53.81 195.575 54.146C195.286 54.482 194.931 54.7433 194.511 54.93C194.1 55.1073 193.643 55.196 193.139 55.196ZM195.603 51.374C195.603 50.9447 195.556 50.5433 195.463 50.17C195.37 49.7967 195.225 49.4747 195.029 49.204C194.833 48.924 194.581 48.7047 194.273 48.546C193.965 48.3873 193.587 48.308 193.139 48.308C192.7 48.308 192.322 48.3967 192.005 48.574C191.697 48.742 191.445 48.9707 191.249 49.26C191.053 49.54 190.908 49.8667 190.815 50.24C190.722 50.604 190.675 50.982 190.675 51.374C190.675 51.822 190.726 52.2373 190.829 52.62C190.941 52.9933 191.1 53.3153 191.305 53.586C191.51 53.8567 191.767 54.0667 192.075 54.216C192.383 54.3653 192.738 54.44 193.139 54.44C193.578 54.44 193.951 54.356 194.259 54.188C194.576 54.0107 194.833 53.7773 195.029 53.488C195.225 53.1987 195.37 52.872 195.463 52.508C195.556 52.144 195.603 51.766 195.603 51.374ZM198.972 51.346C198.972 51.7847 199.024 52.1953 199.126 52.578C199.238 52.9513 199.397 53.278 199.602 53.558C199.808 53.8287 200.064 54.0433 200.372 54.202C200.68 54.3607 201.03 54.44 201.422 54.44C201.777 54.44 202.104 54.3793 202.402 54.258C202.701 54.1273 202.962 53.9407 203.186 53.698C203.41 53.4553 203.583 53.1613 203.704 52.816C203.835 52.4613 203.9 52.0553 203.9 51.598C203.919 51.1407 203.882 50.716 203.788 50.324C203.695 49.9227 203.546 49.5727 203.34 49.274C203.135 48.9753 202.869 48.742 202.542 48.574C202.225 48.3967 201.852 48.308 201.422 48.308C201.04 48.308 200.694 48.392 200.386 48.56C200.088 48.7187 199.831 48.938 199.616 49.218C199.411 49.4887 199.252 49.8107 199.14 50.184C199.028 50.548 198.972 50.9353 198.972 51.346ZM198.972 55H198.132V44.92H198.972V48.91C199.243 48.462 199.612 48.126 200.078 47.902C200.554 47.6687 201.049 47.552 201.562 47.552C202.113 47.552 202.589 47.6593 202.99 47.874C203.401 48.0793 203.737 48.3593 203.998 48.714C204.269 49.0593 204.47 49.4653 204.6 49.932C204.731 50.3987 204.796 50.884 204.796 51.388C204.796 51.92 204.736 52.4193 204.614 52.886C204.493 53.3527 204.297 53.7587 204.026 54.104C203.765 54.44 203.429 54.706 203.018 54.902C202.608 55.098 202.108 55.196 201.52 55.196C201.287 55.196 201.049 55.1633 200.806 55.098C200.564 55.0327 200.326 54.9393 200.092 54.818C199.868 54.6967 199.658 54.5473 199.462 54.37C199.276 54.1833 199.122 53.9687 199 53.726H198.972V55ZM206.473 55V47.748H207.313V55H206.473ZM206.431 46.166V44.92H207.355V46.166H206.431ZM209.576 55V44.92H210.416V55H209.576ZM218.998 55.028C218.896 55.0467 218.76 55.0793 218.592 55.126C218.424 55.1727 218.238 55.196 218.032 55.196C217.612 55.196 217.29 55.0933 217.066 54.888C216.852 54.6733 216.744 54.2953 216.744 53.754V48.448H215.722V47.748H216.744V45.732H217.584V47.748H218.942V48.448H217.584V53.418C217.584 53.5953 217.589 53.7493 217.598 53.88C217.608 54.0107 217.636 54.118 217.682 54.202C217.729 54.286 217.799 54.3467 217.892 54.384C217.995 54.4213 218.135 54.44 218.312 54.44C218.424 54.44 218.536 54.4307 218.648 54.412C218.77 54.3933 218.886 54.37 218.998 54.342V55.028ZM220.227 55V47.748H221.067V55H220.227ZM220.185 46.166V44.92H221.109V46.166H220.185ZM228.804 51.346C228.804 50.9353 228.748 50.548 228.636 50.184C228.524 49.8107 228.361 49.4887 228.146 49.218C227.941 48.938 227.684 48.7187 227.376 48.56C227.078 48.392 226.737 48.308 226.354 48.308C225.916 48.308 225.538 48.3967 225.22 48.574C224.903 48.742 224.642 48.9753 224.436 49.274C224.231 49.5727 224.082 49.9227 223.988 50.324C223.895 50.716 223.858 51.1407 223.876 51.598C223.876 52.0553 223.937 52.4613 224.058 52.816C224.189 53.1613 224.366 53.4553 224.59 53.698C224.814 53.9407 225.076 54.1273 225.374 54.258C225.673 54.3793 226 54.44 226.354 54.44C226.746 54.44 227.096 54.3607 227.404 54.202C227.712 54.0433 227.969 53.8287 228.174 53.558C228.38 53.278 228.534 52.9513 228.636 52.578C228.748 52.1953 228.804 51.7847 228.804 51.346ZM228.804 44.92H229.644V55H228.804V53.726H228.776C228.655 53.9687 228.496 54.1833 228.3 54.37C228.114 54.5473 227.904 54.6967 227.67 54.818C227.446 54.9393 227.213 55.0327 226.97 55.098C226.728 55.1633 226.49 55.196 226.256 55.196C225.668 55.196 225.169 55.098 224.758 54.902C224.348 54.706 224.007 54.44 223.736 54.104C223.475 53.7587 223.284 53.3527 223.162 52.886C223.041 52.4193 222.98 51.92 222.98 51.388C222.98 50.884 223.046 50.3987 223.176 49.932C223.307 49.4653 223.503 49.0593 223.764 48.714C224.035 48.3593 224.371 48.0793 224.772 47.874C225.183 47.6593 225.664 47.552 226.214 47.552C226.728 47.552 227.218 47.6687 227.684 47.902C228.16 48.126 228.534 48.462 228.804 48.91V44.92ZM236.509 51.192C236.154 51.3413 235.795 51.4393 235.431 51.486C235.067 51.5327 234.703 51.57 234.339 51.598C233.695 51.6447 233.191 51.7893 232.827 52.032C232.472 52.2747 232.295 52.6433 232.295 53.138C232.295 53.362 232.337 53.558 232.421 53.726C232.514 53.8847 232.631 54.02 232.771 54.132C232.92 54.2347 233.088 54.314 233.275 54.37C233.471 54.4167 233.667 54.44 233.863 54.44C234.199 54.44 234.526 54.398 234.843 54.314C235.16 54.23 235.44 54.104 235.683 53.936C235.935 53.7587 236.136 53.5393 236.285 53.278C236.434 53.0073 236.509 52.69 236.509 52.326V51.192ZM235.095 50.772C235.254 50.7533 235.44 50.7253 235.655 50.688C235.879 50.6507 236.061 50.5993 236.201 50.534C236.341 50.4687 236.425 50.3613 236.453 50.212C236.49 50.0533 236.509 49.9087 236.509 49.778C236.509 49.3487 236.369 48.9987 236.089 48.728C235.818 48.448 235.356 48.308 234.703 48.308C234.414 48.308 234.148 48.336 233.905 48.392C233.662 48.4387 233.448 48.5273 233.261 48.658C233.084 48.7793 232.934 48.9473 232.813 49.162C232.701 49.3673 232.626 49.6287 232.589 49.946H231.735C231.763 49.5167 231.861 49.1527 232.029 48.854C232.197 48.546 232.412 48.2987 232.673 48.112C232.944 47.916 233.252 47.776 233.597 47.692C233.952 47.5987 234.325 47.552 234.717 47.552C235.081 47.552 235.422 47.594 235.739 47.678C236.066 47.7527 236.346 47.8787 236.579 48.056C236.822 48.224 237.008 48.4527 237.139 48.742C237.279 49.0313 237.349 49.386 237.349 49.806V53.754C237.349 54.0807 237.405 54.2907 237.517 54.384C237.638 54.468 237.876 54.4447 238.231 54.314V54.972C238.166 54.9907 238.068 55.0187 237.937 55.056C237.816 55.0933 237.694 55.112 237.573 55.112C237.442 55.112 237.316 55.098 237.195 55.07C237.055 55.0513 236.943 55.0093 236.859 54.944C236.775 54.8693 236.705 54.7853 236.649 54.692C236.602 54.5893 236.57 54.482 236.551 54.37C236.532 54.2487 236.523 54.1227 236.523 53.992C236.168 54.384 235.762 54.6827 235.305 54.888C234.848 55.0933 234.353 55.196 233.821 55.196C233.504 55.196 233.196 55.154 232.897 55.07C232.608 54.986 232.351 54.8553 232.127 54.678C231.903 54.5007 231.726 54.286 231.595 54.034C231.464 53.7727 231.399 53.4647 231.399 53.11C231.399 51.878 232.244 51.15 233.933 50.926L235.095 50.772ZM239.486 55V44.92H240.326V51.192L243.882 47.748H245.03L242.314 50.366L245.352 55H244.414L241.698 50.954L240.326 52.256V55H239.486ZM256.039 51.346C256.039 50.9353 255.983 50.548 255.871 50.184C255.759 49.8107 255.595 49.4887 255.381 49.218C255.175 48.938 254.919 48.7187 254.611 48.56C254.312 48.392 253.971 48.308 253.589 48.308C253.15 48.308 252.772 48.3967 252.455 48.574C252.137 48.742 251.876 48.9753 251.671 49.274C251.465 49.5727 251.316 49.9227 251.223 50.324C251.129 50.716 251.092 51.1407 251.111 51.598C251.111 52.0553 251.171 52.4613 251.293 52.816C251.423 53.1613 251.601 53.4553 251.825 53.698C252.049 53.9407 252.31 54.1273 252.609 54.258C252.907 54.3793 253.234 54.44 253.589 54.44C253.981 54.44 254.331 54.3607 254.639 54.202C254.947 54.0433 255.203 53.8287 255.409 53.558C255.614 53.278 255.768 52.9513 255.871 52.578C255.983 52.1953 256.039 51.7847 256.039 51.346ZM256.039 44.92H256.879V55H256.039V53.726H256.011C255.889 53.9687 255.731 54.1833 255.535 54.37C255.348 54.5473 255.138 54.6967 254.905 54.818C254.681 54.9393 254.447 55.0327 254.205 55.098C253.962 55.1633 253.724 55.196 253.491 55.196C252.903 55.196 252.403 55.098 251.993 54.902C251.582 54.706 251.241 54.44 250.971 54.104C250.709 53.7587 250.518 53.3527 250.397 52.886C250.275 52.4193 250.215 51.92 250.215 51.388C250.215 50.884 250.28 50.3987 250.411 49.932C250.541 49.4653 250.737 49.0593 250.999 48.714C251.269 48.3593 251.605 48.0793 252.007 47.874C252.417 47.6593 252.898 47.552 253.449 47.552C253.962 47.552 254.452 47.6687 254.919 47.902C255.395 48.126 255.768 48.462 256.039 48.91V44.92ZM263.743 51.192C263.389 51.3413 263.029 51.4393 262.665 51.486C262.301 51.5327 261.937 51.57 261.573 51.598C260.929 51.6447 260.425 51.7893 260.061 52.032C259.707 52.2747 259.529 52.6433 259.529 53.138C259.529 53.362 259.571 53.558 259.655 53.726C259.749 53.8847 259.865 54.02 260.005 54.132C260.155 54.2347 260.323 54.314 260.509 54.37C260.705 54.4167 260.901 54.44 261.097 54.44C261.433 54.44 261.76 54.398 262.077 54.314C262.395 54.23 262.675 54.104 262.917 53.936C263.169 53.7587 263.37 53.5393 263.519 53.278C263.669 53.0073 263.743 52.69 263.743 52.326V51.192ZM262.329 50.772C262.488 50.7533 262.675 50.7253 262.889 50.688C263.113 50.6507 263.295 50.5993 263.435 50.534C263.575 50.4687 263.659 50.3613 263.687 50.212C263.725 50.0533 263.743 49.9087 263.743 49.778C263.743 49.3487 263.603 48.9987 263.323 48.728C263.053 48.448 262.591 48.308 261.937 48.308C261.648 48.308 261.382 48.336 261.139 48.392C260.897 48.4387 260.682 48.5273 260.495 48.658C260.318 48.7793 260.169 48.9473 260.047 49.162C259.935 49.3673 259.861 49.6287 259.823 49.946H258.969C258.997 49.5167 259.095 49.1527 259.263 48.854C259.431 48.546 259.646 48.2987 259.907 48.112C260.178 47.916 260.486 47.776 260.831 47.692C261.186 47.5987 261.559 47.552 261.951 47.552C262.315 47.552 262.656 47.594 262.973 47.678C263.3 47.7527 263.58 47.8787 263.813 48.056C264.056 48.224 264.243 48.4527 264.373 48.742C264.513 49.0313 264.583 49.386 264.583 49.806V53.754C264.583 54.0807 264.639 54.2907 264.751 54.384C264.873 54.468 265.111 54.4447 265.465 54.314V54.972C265.4 54.9907 265.302 55.0187 265.171 55.056C265.05 55.0933 264.929 55.112 264.807 55.112C264.677 55.112 264.551 55.098 264.429 55.07C264.289 55.0513 264.177 55.0093 264.093 54.944C264.009 54.8693 263.939 54.7853 263.883 54.692C263.837 54.5893 263.804 54.482 263.785 54.37C263.767 54.2487 263.757 54.1227 263.757 53.992C263.403 54.384 262.997 54.6827 262.539 54.888C262.082 55.0933 261.587 55.196 261.055 55.196C260.738 55.196 260.43 55.154 260.131 55.07C259.842 54.986 259.585 54.8553 259.361 54.678C259.137 54.5007 258.96 54.286 258.829 54.034C258.699 53.7727 258.633 53.4647 258.633 53.11C258.633 51.878 259.478 51.15 261.167 50.926L262.329 50.772ZM267.715 51.402C267.715 51.8127 267.771 52.2047 267.883 52.578C267.995 52.942 268.153 53.264 268.359 53.544C268.573 53.8147 268.83 54.034 269.129 54.202C269.437 54.3607 269.782 54.44 270.165 54.44C270.594 54.44 270.967 54.356 271.285 54.188C271.611 54.0107 271.877 53.7727 272.083 53.474C272.288 53.1753 272.437 52.83 272.531 52.438C272.624 52.0367 272.661 51.6073 272.643 51.15C272.643 50.6927 272.577 50.2913 272.447 49.946C272.325 49.5913 272.153 49.2927 271.929 49.05C271.705 48.8073 271.443 48.6253 271.145 48.504C270.846 48.3733 270.519 48.308 270.165 48.308C269.773 48.308 269.423 48.3873 269.115 48.546C268.807 48.7047 268.55 48.924 268.345 49.204C268.139 49.4747 267.981 49.8013 267.869 50.184C267.766 50.5573 267.715 50.9633 267.715 51.402ZM267.715 57.856H266.875V47.748H267.715V49.022H267.743C267.864 48.7887 268.018 48.5787 268.205 48.392C268.401 48.2053 268.611 48.0513 268.835 47.93C269.068 47.8087 269.306 47.7153 269.549 47.65C269.791 47.5847 270.029 47.552 270.263 47.552C270.851 47.552 271.35 47.65 271.761 47.846C272.171 48.042 272.507 48.3127 272.769 48.658C273.039 48.994 273.235 49.3953 273.357 49.862C273.478 50.3287 273.539 50.828 273.539 51.36C273.539 51.864 273.473 52.3493 273.343 52.816C273.212 53.2827 273.011 53.6933 272.741 54.048C272.479 54.3933 272.143 54.6733 271.733 54.888C271.331 55.0933 270.855 55.196 270.305 55.196C269.791 55.196 269.297 55.084 268.821 54.86C268.354 54.6267 267.985 54.286 267.715 53.838V57.856ZM280.081 51.192C279.726 51.3413 279.367 51.4393 279.003 51.486C278.639 51.5327 278.275 51.57 277.911 51.598C277.267 51.6447 276.763 51.7893 276.399 52.032C276.044 52.2747 275.867 52.6433 275.867 53.138C275.867 53.362 275.909 53.558 275.993 53.726C276.086 53.8847 276.203 54.02 276.343 54.132C276.492 54.2347 276.66 54.314 276.847 54.37C277.043 54.4167 277.239 54.44 277.435 54.44C277.771 54.44 278.098 54.398 278.415 54.314C278.732 54.23 279.012 54.104 279.255 53.936C279.507 53.7587 279.708 53.5393 279.857 53.278C280.006 53.0073 280.081 52.69 280.081 52.326V51.192ZM278.667 50.772C278.826 50.7533 279.012 50.7253 279.227 50.688C279.451 50.6507 279.633 50.5993 279.773 50.534C279.913 50.4687 279.997 50.3613 280.025 50.212C280.062 50.0533 280.081 49.9087 280.081 49.778C280.081 49.3487 279.941 48.9987 279.661 48.728C279.39 48.448 278.928 48.308 278.275 48.308C277.986 48.308 277.72 48.336 277.477 48.392C277.234 48.4387 277.02 48.5273 276.833 48.658C276.656 48.7793 276.506 48.9473 276.385 49.162C276.273 49.3673 276.198 49.6287 276.161 49.946H275.307C275.335 49.5167 275.433 49.1527 275.601 48.854C275.769 48.546 275.984 48.2987 276.245 48.112C276.516 47.916 276.824 47.776 277.169 47.692C277.524 47.5987 277.897 47.552 278.289 47.552C278.653 47.552 278.994 47.594 279.311 47.678C279.638 47.7527 279.918 47.8787 280.151 48.056C280.394 48.224 280.58 48.4527 280.711 48.742C280.851 49.0313 280.921 49.386 280.921 49.806V53.754C280.921 54.0807 280.977 54.2907 281.089 54.384C281.21 54.468 281.448 54.4447 281.803 54.314V54.972C281.738 54.9907 281.64 55.0187 281.509 55.056C281.388 55.0933 281.266 55.112 281.145 55.112C281.014 55.112 280.888 55.098 280.767 55.07C280.627 55.0513 280.515 55.0093 280.431 54.944C280.347 54.8693 280.277 54.7853 280.221 54.692C280.174 54.5893 280.142 54.482 280.123 54.37C280.104 54.2487 280.095 54.1227 280.095 53.992C279.74 54.384 279.334 54.6827 278.877 54.888C278.42 55.0933 277.925 55.196 277.393 55.196C277.076 55.196 276.768 55.154 276.469 55.07C276.18 54.986 275.923 54.8553 275.699 54.678C275.475 54.5007 275.298 54.286 275.167 54.034C275.036 53.7727 274.971 53.4647 274.971 53.11C274.971 51.878 275.816 51.15 277.505 50.926L278.667 50.772ZM285.662 55.028C285.56 55.0467 285.424 55.0793 285.256 55.126C285.088 55.1727 284.902 55.196 284.696 55.196C284.276 55.196 283.954 55.0933 283.73 54.888C283.516 54.6733 283.408 54.2953 283.408 53.754V48.448H282.386V47.748H283.408V45.732H284.248V47.748H285.606V48.448H284.248V53.418C284.248 53.5953 284.253 53.7493 284.262 53.88C284.272 54.0107 284.3 54.118 284.346 54.202C284.393 54.286 284.463 54.3467 284.556 54.384C284.659 54.4213 284.799 54.44 284.976 54.44C285.088 54.44 285.2 54.4307 285.312 54.412C285.434 54.3933 285.55 54.37 285.662 54.342V55.028ZM46.2164 71.346C46.2164 70.9353 46.1604 70.548 46.0484 70.184C45.9364 69.8107 45.7731 69.4887 45.5584 69.218C45.3531 68.938 45.0964 68.7187 44.7884 68.56C44.4897 68.392 44.1491 68.308 43.7664 68.308C43.3277 68.308 42.9497 68.3967 42.6324 68.574C42.3151 68.742 42.0537 68.9753 41.8484 69.274C41.6431 69.5727 41.4937 69.9227 41.4004 70.324C41.3071 70.716 41.2697 71.1407 41.2884 71.598C41.2884 72.0553 41.3491 72.4613 41.4704 72.816C41.6011 73.1613 41.7784 73.4553 42.0024 73.698C42.2264 73.9407 42.4877 74.1273 42.7864 74.258C43.0851 74.3793 43.4117 74.44 43.7664 74.44C44.1584 74.44 44.5084 74.3607 44.8164 74.202C45.1244 74.0433 45.3811 73.8287 45.5864 73.558C45.7917 73.278 45.9457 72.9513 46.0484 72.578C46.1604 72.1953 46.2164 71.7847 46.2164 71.346ZM46.2164 64.92H47.0564V75H46.2164V73.726H46.1884C46.0671 73.9687 45.9084 74.1833 45.7124 74.37C45.5257 74.5473 45.3157 74.6967 45.0824 74.818C44.8584 74.9393 44.6251 75.0327 44.3824 75.098C44.1397 75.1633 43.9017 75.196 43.6684 75.196C43.0804 75.196 42.5811 75.098 42.1704 74.902C41.7597 74.706 41.4191 74.44 41.1484 74.104C40.8871 73.7587 40.6957 73.3527 40.5744 72.886C40.4531 72.4193 40.3924 71.92 40.3924 71.388C40.3924 70.884 40.4577 70.3987 40.5884 69.932C40.7191 69.4653 40.9151 69.0593 41.1764 68.714C41.4471 68.3593 41.7831 68.0793 42.1844 67.874C42.5951 67.6593 43.0757 67.552 43.6264 67.552C44.1397 67.552 44.6297 67.6687 45.0964 67.902C45.5724 68.126 45.9457 68.462 46.2164 68.91V64.92ZM49.0549 75V67.748H49.8949V75H49.0549ZM49.0129 66.166V64.92H49.9369V66.166H49.0129ZM51.9764 75V64.92H52.8164V71.192L56.3724 67.748H57.5204L54.8044 70.366L57.8424 75H56.9044L54.1884 70.954L52.8164 72.256V75H51.9764ZM64.2824 70.87C64.2824 70.5153 64.2311 70.184 64.1284 69.876C64.0351 69.5587 63.8904 69.288 63.6944 69.064C63.5077 68.8307 63.2697 68.6487 62.9804 68.518C62.6911 68.378 62.3597 68.308 61.9864 68.308C61.6131 68.308 61.2817 68.378 60.9924 68.518C60.7124 68.658 60.4697 68.8447 60.2644 69.078C60.0684 69.3113 59.9097 69.582 59.7884 69.89C59.6671 70.198 59.5877 70.5247 59.5504 70.87H64.2824ZM59.5504 71.57C59.5504 71.962 59.6017 72.3353 59.7044 72.69C59.8071 73.0353 59.9564 73.3387 60.1524 73.6C60.3577 73.852 60.6144 74.0573 60.9224 74.216C61.2304 74.3653 61.5851 74.44 61.9864 74.44C62.5371 74.44 63.0084 74.2953 63.4004 74.006C63.7924 73.7167 64.0537 73.306 64.1844 72.774H65.1224C65.0197 73.1193 64.8844 73.4413 64.7164 73.74C64.5484 74.0293 64.3384 74.286 64.0864 74.51C63.8344 74.7247 63.5357 74.8927 63.1904 75.014C62.8451 75.1353 62.4437 75.196 61.9864 75.196C61.4077 75.196 60.9084 75.098 60.4884 74.902C60.0684 74.706 59.7231 74.44 59.4524 74.104C59.1817 73.7587 58.9811 73.3573 58.8504 72.9C58.7197 72.4333 58.6544 71.934 58.6544 71.402C58.6544 70.87 58.7291 70.3707 58.8784 69.904C59.0371 69.4373 59.2564 69.0313 59.5364 68.686C59.8257 68.3313 60.1757 68.056 60.5864 67.86C60.9971 67.6547 61.4637 67.552 61.9864 67.552C62.9851 67.552 63.7691 67.8973 64.3384 68.588C64.9077 69.2693 65.1877 70.2633 65.1784 71.57H59.5504ZM67.5397 75H66.6997V67.748H67.5397V68.84H67.5677C67.7824 68.42 68.0904 68.1027 68.4917 67.888C68.893 67.664 69.3317 67.552 69.8077 67.552C70.1437 67.552 70.4284 67.5893 70.6617 67.664C70.895 67.7387 71.091 67.8413 71.2497 67.972C71.4177 68.0933 71.553 68.238 71.6557 68.406C71.7677 68.574 71.861 68.756 71.9357 68.952C72.1784 68.476 72.5004 68.126 72.9017 67.902C73.3124 67.6687 73.779 67.552 74.3017 67.552C74.7964 67.552 75.1884 67.636 75.4777 67.804C75.7764 67.9627 76.005 68.1773 76.1637 68.448C76.3224 68.7093 76.425 69.0127 76.4717 69.358C76.5277 69.7033 76.5557 70.058 76.5557 70.422V75H75.7157V69.988C75.7157 69.4653 75.6037 69.0547 75.3797 68.756C75.165 68.4573 74.759 68.308 74.1617 68.308C73.8537 68.308 73.555 68.378 73.2657 68.518C72.9857 68.6487 72.7384 68.854 72.5237 69.134C72.4304 69.2553 72.351 69.4 72.2857 69.568C72.2297 69.7267 72.183 69.8947 72.1457 70.072C72.1084 70.2493 72.0804 70.4267 72.0617 70.604C72.0524 70.7813 72.0477 70.9447 72.0477 71.094V75H71.2077V69.988C71.2077 69.4653 71.0957 69.0547 70.8717 68.756C70.657 68.4573 70.251 68.308 69.6537 68.308C69.3457 68.308 69.047 68.378 68.7577 68.518C68.4777 68.6487 68.2304 68.854 68.0157 69.134C67.9224 69.2553 67.843 69.4 67.7777 69.568C67.7217 69.7267 67.675 69.8947 67.6377 70.072C67.6004 70.2493 67.5724 70.4267 67.5537 70.604C67.5444 70.7813 67.5397 70.9447 67.5397 71.094V75ZM79.4118 71.346C79.4118 71.7847 79.4632 72.1953 79.5658 72.578C79.6778 72.9513 79.8365 73.278 80.0418 73.558C80.2472 73.8287 80.5038 74.0433 80.8118 74.202C81.1198 74.3607 81.4698 74.44 81.8618 74.44C82.2165 74.44 82.5432 74.3793 82.8418 74.258C83.1405 74.1273 83.4018 73.9407 83.6258 73.698C83.8498 73.4553 84.0225 73.1613 84.1438 72.816C84.2745 72.4613 84.3398 72.0553 84.3398 71.598C84.3585 71.1407 84.3212 70.716 84.2278 70.324C84.1345 69.9227 83.9852 69.5727 83.7798 69.274C83.5745 68.9753 83.3085 68.742 82.9818 68.574C82.6645 68.3967 82.2912 68.308 81.8618 68.308C81.4792 68.308 81.1338 68.392 80.8258 68.56C80.5272 68.7187 80.2705 68.938 80.0558 69.218C79.8505 69.4887 79.6918 69.8107 79.5798 70.184C79.4678 70.548 79.4118 70.9353 79.4118 71.346ZM79.4118 75H78.5718V64.92H79.4118V68.91C79.6825 68.462 80.0512 68.126 80.5178 67.902C80.9938 67.6687 81.4885 67.552 82.0018 67.552C82.5525 67.552 83.0285 67.6593 83.4298 67.874C83.8405 68.0793 84.1765 68.3593 84.4378 68.714C84.7085 69.0593 84.9092 69.4653 85.0398 69.932C85.1705 70.3987 85.2358 70.884 85.2358 71.388C85.2358 71.92 85.1752 72.4193 85.0538 72.886C84.9325 73.3527 84.7365 73.7587 84.4658 74.104C84.2045 74.44 83.8685 74.706 83.4578 74.902C83.0472 75.098 82.5478 75.196 81.9598 75.196C81.7265 75.196 81.4885 75.1633 81.2458 75.098C81.0032 75.0327 80.7652 74.9393 80.5318 74.818C80.3078 74.6967 80.0978 74.5473 79.9018 74.37C79.7152 74.1833 79.5612 73.9687 79.4398 73.726H79.4118V75ZM91.7784 71.192C91.4237 71.3413 91.0644 71.4393 90.7004 71.486C90.3364 71.5327 89.9724 71.57 89.6084 71.598C88.9644 71.6447 88.4604 71.7893 88.0964 72.032C87.7417 72.2747 87.5644 72.6433 87.5644 73.138C87.5644 73.362 87.6064 73.558 87.6904 73.726C87.7837 73.8847 87.9004 74.02 88.0404 74.132C88.1897 74.2347 88.3577 74.314 88.5444 74.37C88.7404 74.4167 88.9364 74.44 89.1324 74.44C89.4684 74.44 89.7951 74.398 90.1124 74.314C90.4297 74.23 90.7097 74.104 90.9524 73.936C91.2044 73.7587 91.4051 73.5393 91.5544 73.278C91.7037 73.0073 91.7784 72.69 91.7784 72.326V71.192ZM90.3644 70.772C90.5231 70.7533 90.7097 70.7253 90.9244 70.688C91.1484 70.6507 91.3304 70.5993 91.4704 70.534C91.6104 70.4687 91.6944 70.3613 91.7224 70.212C91.7597 70.0533 91.7784 69.9087 91.7784 69.778C91.7784 69.3487 91.6384 68.9987 91.3584 68.728C91.0877 68.448 90.6257 68.308 89.9724 68.308C89.6831 68.308 89.4171 68.336 89.1744 68.392C88.9317 68.4387 88.7171 68.5273 88.5304 68.658C88.3531 68.7793 88.2037 68.9473 88.0824 69.162C87.9704 69.3673 87.8957 69.6287 87.8584 69.946H87.0044C87.0324 69.5167 87.1304 69.1527 87.2984 68.854C87.4664 68.546 87.6811 68.2987 87.9424 68.112C88.2131 67.916 88.5211 67.776 88.8664 67.692C89.2211 67.5987 89.5944 67.552 89.9864 67.552C90.3504 67.552 90.6911 67.594 91.0084 67.678C91.3351 67.7527 91.6151 67.8787 91.8484 68.056C92.0911 68.224 92.2777 68.4527 92.4084 68.742C92.5484 69.0313 92.6184 69.386 92.6184 69.806V73.754C92.6184 74.0807 92.6744 74.2907 92.7864 74.384C92.9077 74.468 93.1457 74.4447 93.5004 74.314V74.972C93.4351 74.9907 93.3371 75.0187 93.2064 75.056C93.0851 75.0933 92.9637 75.112 92.8424 75.112C92.7117 75.112 92.5857 75.098 92.4644 75.07C92.3244 75.0513 92.2124 75.0093 92.1284 74.944C92.0444 74.8693 91.9744 74.7853 91.9184 74.692C91.8717 74.5893 91.8391 74.482 91.8204 74.37C91.8017 74.2487 91.7924 74.1227 91.7924 73.992C91.4377 74.384 91.0317 74.6827 90.5744 74.888C90.1171 75.0933 89.6224 75.196 89.0904 75.196C88.7731 75.196 88.4651 75.154 88.1664 75.07C87.8771 74.986 87.6204 74.8553 87.3964 74.678C87.1724 74.5007 86.9951 74.286 86.8644 74.034C86.7337 73.7727 86.6684 73.4647 86.6684 73.11C86.6684 71.878 87.5131 71.15 89.2024 70.926L90.3644 70.772ZM94.9377 75V64.92H95.7777V75H94.9377ZM97.7951 75V67.748H98.6351V75H97.7951ZM97.7531 66.166V64.92H98.6771V66.166H97.7531ZM100.717 75V64.92H101.557V71.192L105.113 67.748H106.261L103.545 70.366L106.583 75H105.645L102.929 70.954L101.557 72.256V75H100.717ZM112.519 71.192C112.164 71.3413 111.805 71.4393 111.441 71.486C111.077 71.5327 110.713 71.57 110.349 71.598C109.705 71.6447 109.201 71.7893 108.837 72.032C108.482 72.2747 108.305 72.6433 108.305 73.138C108.305 73.362 108.347 73.558 108.431 73.726C108.524 73.8847 108.641 74.02 108.781 74.132C108.93 74.2347 109.098 74.314 109.285 74.37C109.481 74.4167 109.677 74.44 109.873 74.44C110.209 74.44 110.535 74.398 110.853 74.314C111.17 74.23 111.45 74.104 111.693 73.936C111.945 73.7587 112.145 73.5393 112.295 73.278C112.444 73.0073 112.519 72.69 112.519 72.326V71.192ZM111.105 70.772C111.263 70.7533 111.45 70.7253 111.665 70.688C111.889 70.6507 112.071 70.5993 112.211 70.534C112.351 70.4687 112.435 70.3613 112.463 70.212C112.5 70.0533 112.519 69.9087 112.519 69.778C112.519 69.3487 112.379 68.9987 112.099 68.728C111.828 68.448 111.366 68.308 110.713 68.308C110.423 68.308 110.157 68.336 109.915 68.392C109.672 68.4387 109.457 68.5273 109.271 68.658C109.093 68.7793 108.944 68.9473 108.823 69.162C108.711 69.3673 108.636 69.6287 108.599 69.946H107.745C107.773 69.5167 107.871 69.1527 108.039 68.854C108.207 68.546 108.421 68.2987 108.683 68.112C108.953 67.916 109.261 67.776 109.607 67.692C109.961 67.5987 110.335 67.552 110.727 67.552C111.091 67.552 111.431 67.594 111.749 67.678C112.075 67.7527 112.355 67.8787 112.589 68.056C112.831 68.224 113.018 68.4527 113.149 68.742C113.289 69.0313 113.359 69.386 113.359 69.806V73.754C113.359 74.0807 113.415 74.2907 113.527 74.384C113.648 74.468 113.886 74.4447 114.241 74.314V74.972C114.175 74.9907 114.077 75.0187 113.947 75.056C113.825 75.0933 113.704 75.112 113.583 75.112C113.452 75.112 113.326 75.098 113.205 75.07C113.065 75.0513 112.953 75.0093 112.869 74.944C112.785 74.8693 112.715 74.7853 112.659 74.692C112.612 74.5893 112.579 74.482 112.561 74.37C112.542 74.2487 112.533 74.1227 112.533 73.992C112.178 74.384 111.772 74.6827 111.315 74.888C110.857 75.0933 110.363 75.196 109.831 75.196C109.513 75.196 109.205 75.154 108.907 75.07C108.617 74.986 108.361 74.8553 108.137 74.678C107.913 74.5007 107.735 74.286 107.605 74.034C107.474 73.7727 107.409 73.4647 107.409 73.11C107.409 71.878 108.253 71.15 109.943 70.926L111.105 70.772ZM116.392 75H115.552V67.748H116.392V68.756C116.728 68.4013 117.073 68.112 117.428 67.888C117.792 67.664 118.226 67.552 118.73 67.552C119.178 67.552 119.593 67.6313 119.976 67.79C120.359 67.9393 120.681 68.2053 120.942 68.588C121.119 68.8493 121.222 69.12 121.25 69.4C121.287 69.6707 121.306 69.9553 121.306 70.254V75H120.466V70.268C120.466 69.6147 120.321 69.1247 120.032 68.798C119.743 68.4713 119.262 68.308 118.59 68.308C118.329 68.308 118.091 68.35 117.876 68.434C117.661 68.5087 117.465 68.6113 117.288 68.742C117.12 68.8727 116.975 69.022 116.854 69.19C116.733 69.358 116.639 69.5353 116.574 69.722C116.49 69.9553 116.439 70.1793 116.42 70.394C116.401 70.6087 116.392 70.842 116.392 71.094V75ZM123.751 75V73.768H124.773V75H123.751ZM134.344 69.778L137.382 64.92H138.488L134.834 70.604V75H133.882V70.674L130.284 64.92H131.376L134.344 69.778ZM144.429 71.192C144.074 71.3413 143.715 71.4393 143.351 71.486C142.987 71.5327 142.623 71.57 142.259 71.598C141.615 71.6447 141.111 71.7893 140.747 72.032C140.392 72.2747 140.215 72.6433 140.215 73.138C140.215 73.362 140.257 73.558 140.341 73.726C140.434 73.8847 140.551 74.02 140.691 74.132C140.84 74.2347 141.008 74.314 141.195 74.37C141.391 74.4167 141.587 74.44 141.783 74.44C142.119 74.44 142.445 74.398 142.763 74.314C143.08 74.23 143.36 74.104 143.603 73.936C143.855 73.7587 144.055 73.5393 144.205 73.278C144.354 73.0073 144.429 72.69 144.429 72.326V71.192ZM143.015 70.772C143.173 70.7533 143.36 70.7253 143.575 70.688C143.799 70.6507 143.981 70.5993 144.121 70.534C144.261 70.4687 144.345 70.3613 144.373 70.212C144.41 70.0533 144.429 69.9087 144.429 69.778C144.429 69.3487 144.289 68.9987 144.009 68.728C143.738 68.448 143.276 68.308 142.623 68.308C142.333 68.308 142.067 68.336 141.825 68.392C141.582 68.4387 141.367 68.5273 141.181 68.658C141.003 68.7793 140.854 68.9473 140.733 69.162C140.621 69.3673 140.546 69.6287 140.509 69.946H139.655C139.683 69.5167 139.781 69.1527 139.949 68.854C140.117 68.546 140.331 68.2987 140.593 68.112C140.863 67.916 141.171 67.776 141.517 67.692C141.871 67.5987 142.245 67.552 142.637 67.552C143.001 67.552 143.341 67.594 143.659 67.678C143.985 67.7527 144.265 67.8787 144.499 68.056C144.741 68.224 144.928 68.4527 145.059 68.742C145.199 69.0313 145.269 69.386 145.269 69.806V73.754C145.269 74.0807 145.325 74.2907 145.437 74.384C145.558 74.468 145.796 74.4447 146.151 74.314V74.972C146.085 74.9907 145.987 75.0187 145.857 75.056C145.735 75.0933 145.614 75.112 145.493 75.112C145.362 75.112 145.236 75.098 145.115 75.07C144.975 75.0513 144.863 75.0093 144.779 74.944C144.695 74.8693 144.625 74.7853 144.569 74.692C144.522 74.5893 144.489 74.482 144.471 74.37C144.452 74.2487 144.443 74.1227 144.443 73.992C144.088 74.384 143.682 74.6827 143.225 74.888C142.767 75.0933 142.273 75.196 141.741 75.196C141.423 75.196 141.115 75.154 140.817 75.07C140.527 74.986 140.271 74.8553 140.047 74.678C139.823 74.5007 139.645 74.286 139.515 74.034C139.384 73.7727 139.319 73.4647 139.319 73.11C139.319 71.878 140.163 71.15 141.853 70.926L143.015 70.772ZM147.406 75V64.92H148.246V71.192L151.802 67.748H152.95L150.234 70.366L153.272 75H152.334L149.618 70.954L148.246 72.256V75H147.406ZM154.342 75V67.748H155.182V75H154.342ZM154.3 66.166V64.92H155.224V66.166H154.3ZM158.16 75H157.32V67.748H158.16V68.756C158.496 68.4013 158.841 68.112 159.196 67.888C159.56 67.664 159.994 67.552 160.498 67.552C160.946 67.552 161.361 67.6313 161.744 67.79C162.126 67.9393 162.448 68.2053 162.71 68.588C162.887 68.8493 162.99 69.12 163.018 69.4C163.055 69.6707 163.074 69.9553 163.074 70.254V75H162.234V70.268C162.234 69.6147 162.089 69.1247 161.8 68.798C161.51 68.4713 161.03 68.308 160.358 68.308C160.096 68.308 159.858 68.35 159.644 68.434C159.429 68.5087 159.233 68.6113 159.056 68.742C158.888 68.8727 158.743 69.022 158.622 69.19C158.5 69.358 158.407 69.5353 158.342 69.722C158.258 69.9553 158.206 70.1793 158.188 70.394C158.169 70.6087 158.16 70.842 158.16 71.094V75ZM168.875 75V67.748H169.715V75H168.875ZM168.833 66.166V64.92H169.757V66.166H168.833ZM172.693 75H171.853V67.748H172.693V68.756C173.029 68.4013 173.374 68.112 173.729 67.888C174.093 67.664 174.527 67.552 175.031 67.552C175.479 67.552 175.894 67.6313 176.277 67.79C176.659 67.9393 176.981 68.2053 177.243 68.588C177.42 68.8493 177.523 69.12 177.551 69.4C177.588 69.6707 177.607 69.9553 177.607 70.254V75H176.767V70.268C176.767 69.6147 176.622 69.1247 176.333 68.798C176.043 68.4713 175.563 68.308 174.891 68.308C174.629 68.308 174.391 68.35 174.177 68.434C173.962 68.5087 173.766 68.6113 173.589 68.742C173.421 68.8727 173.276 69.022 173.155 69.19C173.033 69.358 172.94 69.5353 172.875 69.722C172.791 69.9553 172.739 70.1793 172.721 70.394C172.702 70.6087 172.693 70.842 172.693 71.094V75ZM185.232 71.402C185.232 70.9633 185.176 70.5573 185.064 70.184C184.961 69.8013 184.807 69.4747 184.602 69.204C184.397 68.924 184.14 68.7047 183.832 68.546C183.524 68.3873 183.174 68.308 182.782 68.308C182.427 68.308 182.101 68.3733 181.802 68.504C181.503 68.6253 181.242 68.8073 181.018 69.05C180.794 69.2927 180.617 69.5913 180.486 69.946C180.365 70.2913 180.304 70.6927 180.304 71.15C180.285 71.6073 180.323 72.0367 180.416 72.438C180.509 72.83 180.659 73.1753 180.864 73.474C181.069 73.7727 181.331 74.0107 181.648 74.188C181.965 74.356 182.343 74.44 182.782 74.44C183.165 74.44 183.505 74.3607 183.804 74.202C184.112 74.034 184.369 73.8147 184.574 73.544C184.789 73.264 184.952 72.942 185.064 72.578C185.176 72.2047 185.232 71.8127 185.232 71.402ZM185.232 67.748H186.072V74.3C186.072 74.7853 186.021 75.2473 185.918 75.686C185.825 76.134 185.652 76.526 185.4 76.862C185.148 77.198 184.803 77.464 184.364 77.66C183.925 77.8653 183.361 77.968 182.67 77.968C182.138 77.968 181.681 77.898 181.298 77.758C180.915 77.6273 180.603 77.4593 180.36 77.254C180.117 77.0487 179.931 76.82 179.8 76.568C179.679 76.3253 179.613 76.0967 179.604 75.882H180.5C180.565 76.1527 180.668 76.372 180.808 76.54C180.948 76.7173 181.111 76.8527 181.298 76.946C181.494 77.0487 181.709 77.1187 181.942 77.156C182.175 77.1933 182.418 77.212 182.67 77.212C183.239 77.212 183.697 77.114 184.042 76.918C184.387 76.722 184.649 76.4653 184.826 76.148C185.003 75.8307 185.115 75.4713 185.162 75.07C185.218 74.6687 185.241 74.258 185.232 73.838C184.961 74.286 184.588 74.6267 184.112 74.86C183.645 75.084 183.155 75.196 182.642 75.196C182.091 75.196 181.611 75.0933 181.2 74.888C180.799 74.6733 180.463 74.3933 180.192 74.048C179.931 73.6933 179.735 73.2827 179.604 72.816C179.473 72.3493 179.408 71.864 179.408 71.36C179.408 70.828 179.469 70.3287 179.59 69.862C179.711 69.3953 179.903 68.994 180.164 68.658C180.435 68.3127 180.775 68.042 181.186 67.846C181.597 67.65 182.096 67.552 182.684 67.552C182.917 67.552 183.155 67.5847 183.398 67.65C183.641 67.7153 183.874 67.8087 184.098 67.93C184.331 68.0513 184.541 68.2053 184.728 68.392C184.924 68.5787 185.083 68.7887 185.204 69.022H185.232V67.748ZM188.071 75V67.748H188.911V75H188.071ZM188.029 66.166V64.92H188.953V66.166H188.029ZM191.888 75H191.048V67.748H191.888V68.756C192.224 68.4013 192.569 68.112 192.924 67.888C193.288 67.664 193.722 67.552 194.226 67.552C194.674 67.552 195.089 67.6313 195.472 67.79C195.855 67.9393 196.177 68.2053 196.438 68.588C196.615 68.8493 196.718 69.12 196.746 69.4C196.783 69.6707 196.802 69.9553 196.802 70.254V75H195.962V70.268C195.962 69.6147 195.817 69.1247 195.528 68.798C195.239 68.4713 194.758 68.308 194.086 68.308C193.825 68.308 193.587 68.35 193.372 68.434C193.157 68.5087 192.961 68.6113 192.784 68.742C192.616 68.8727 192.471 69.022 192.35 69.19C192.229 69.358 192.135 69.5353 192.07 69.722C191.986 69.9553 191.935 70.1793 191.916 70.394C191.897 70.6087 191.888 70.842 191.888 71.094V75ZM203.452 75H202.612V67.748H203.452V68.84H203.48C203.694 68.42 204.002 68.1027 204.404 67.888C204.805 67.664 205.244 67.552 205.72 67.552C206.056 67.552 206.34 67.5893 206.574 67.664C206.807 67.7387 207.003 67.8413 207.162 67.972C207.33 68.0933 207.465 68.238 207.568 68.406C207.68 68.574 207.773 68.756 207.848 68.952C208.09 68.476 208.412 68.126 208.814 67.902C209.224 67.6687 209.691 67.552 210.214 67.552C210.708 67.552 211.1 67.636 211.39 67.804C211.688 67.9627 211.917 68.1773 212.076 68.448C212.234 68.7093 212.337 69.0127 212.384 69.358C212.44 69.7033 212.468 70.058 212.468 70.422V75H211.628V69.988C211.628 69.4653 211.516 69.0547 211.292 68.756C211.077 68.4573 210.671 68.308 210.074 68.308C209.766 68.308 209.467 68.378 209.178 68.518C208.898 68.6487 208.65 68.854 208.436 69.134C208.342 69.2553 208.263 69.4 208.198 69.568C208.142 69.7267 208.095 69.8947 208.058 70.072C208.02 70.2493 207.992 70.4267 207.974 70.604C207.964 70.7813 207.96 70.9447 207.96 71.094V75H207.12V69.988C207.12 69.4653 207.008 69.0547 206.784 68.756C206.569 68.4573 206.163 68.308 205.566 68.308C205.258 68.308 204.959 68.378 204.67 68.518C204.39 68.6487 204.142 68.854 203.928 69.134C203.834 69.2553 203.755 69.4 203.69 69.568C203.634 69.7267 203.587 69.8947 203.55 70.072C203.512 70.2493 203.484 70.4267 203.466 70.604C203.456 70.7813 203.452 70.9447 203.452 71.094V75ZM219.636 70.87C219.636 70.5153 219.585 70.184 219.482 69.876C219.389 69.5587 219.244 69.288 219.048 69.064C218.861 68.8307 218.623 68.6487 218.334 68.518C218.045 68.378 217.713 68.308 217.34 68.308C216.967 68.308 216.635 68.378 216.346 68.518C216.066 68.658 215.823 68.8447 215.618 69.078C215.422 69.3113 215.263 69.582 215.142 69.89C215.021 70.198 214.941 70.5247 214.904 70.87H219.636ZM214.904 71.57C214.904 71.962 214.955 72.3353 215.058 72.69C215.161 73.0353 215.31 73.3387 215.506 73.6C215.711 73.852 215.968 74.0573 216.276 74.216C216.584 74.3653 216.939 74.44 217.34 74.44C217.891 74.44 218.362 74.2953 218.754 74.006C219.146 73.7167 219.407 73.306 219.538 72.774H220.476C220.373 73.1193 220.238 73.4413 220.07 73.74C219.902 74.0293 219.692 74.286 219.44 74.51C219.188 74.7247 218.889 74.8927 218.544 75.014C218.199 75.1353 217.797 75.196 217.34 75.196C216.761 75.196 216.262 75.098 215.842 74.902C215.422 74.706 215.077 74.44 214.806 74.104C214.535 73.7587 214.335 73.3573 214.204 72.9C214.073 72.4333 214.008 71.934 214.008 71.402C214.008 70.87 214.083 70.3707 214.232 69.904C214.391 69.4373 214.61 69.0313 214.89 68.686C215.179 68.3313 215.529 68.056 215.94 67.86C216.351 67.6547 216.817 67.552 217.34 67.552C218.339 67.552 219.123 67.8973 219.692 68.588C220.261 69.2693 220.541 70.2633 220.532 71.57H214.904ZM223.005 75H222.165V67.748H223.005V68.756C223.341 68.4013 223.687 68.112 224.041 67.888C224.405 67.664 224.839 67.552 225.343 67.552C225.791 67.552 226.207 67.6313 226.589 67.79C226.972 67.9393 227.294 68.2053 227.555 68.588C227.733 68.8493 227.835 69.12 227.863 69.4C227.901 69.6707 227.919 69.9553 227.919 70.254V75H227.079V70.268C227.079 69.6147 226.935 69.1247 226.645 68.798C226.356 68.4713 225.875 68.308 225.203 68.308C224.942 68.308 224.704 68.35 224.489 68.434C224.275 68.5087 224.079 68.6113 223.901 68.742C223.733 68.8727 223.589 69.022 223.467 69.19C223.346 69.358 223.253 69.5353 223.187 69.722C223.103 69.9553 223.052 70.1793 223.033 70.394C223.015 70.6087 223.005 70.842 223.005 71.094V75ZM235.545 71.402C235.545 70.9633 235.489 70.5573 235.377 70.184C235.274 69.8013 235.12 69.4747 234.915 69.204C234.709 68.924 234.453 68.7047 234.145 68.546C233.837 68.3873 233.487 68.308 233.095 68.308C232.74 68.308 232.413 68.3733 232.115 68.504C231.816 68.6253 231.555 68.8073 231.331 69.05C231.107 69.2927 230.929 69.5913 230.799 69.946C230.677 70.2913 230.617 70.6927 230.617 71.15C230.598 71.6073 230.635 72.0367 230.729 72.438C230.822 72.83 230.971 73.1753 231.177 73.474C231.382 73.7727 231.643 74.0107 231.961 74.188C232.278 74.356 232.656 74.44 233.095 74.44C233.477 74.44 233.818 74.3607 234.117 74.202C234.425 74.034 234.681 73.8147 234.887 73.544C235.101 73.264 235.265 72.942 235.377 72.578C235.489 72.2047 235.545 71.8127 235.545 71.402ZM235.545 67.748H236.385V74.3C236.385 74.7853 236.333 75.2473 236.231 75.686C236.137 76.134 235.965 76.526 235.713 76.862C235.461 77.198 235.115 77.464 234.677 77.66C234.238 77.8653 233.673 77.968 232.983 77.968C232.451 77.968 231.993 77.898 231.611 77.758C231.228 77.6273 230.915 77.4593 230.673 77.254C230.43 77.0487 230.243 76.82 230.113 76.568C229.991 76.3253 229.926 76.0967 229.917 75.882H230.813C230.878 76.1527 230.981 76.372 231.121 76.54C231.261 76.7173 231.424 76.8527 231.611 76.946C231.807 77.0487 232.021 77.1187 232.255 77.156C232.488 77.1933 232.731 77.212 232.983 77.212C233.552 77.212 234.009 77.114 234.355 76.918C234.7 76.722 234.961 76.4653 235.139 76.148C235.316 75.8307 235.428 75.4713 235.475 75.07C235.531 74.6687 235.554 74.258 235.545 73.838C235.274 74.286 234.901 74.6267 234.425 74.86C233.958 75.084 233.468 75.196 232.955 75.196C232.404 75.196 231.923 75.0933 231.513 74.888C231.111 74.6733 230.775 74.3933 230.505 74.048C230.243 73.6933 230.047 73.2827 229.917 72.816C229.786 72.3493 229.721 71.864 229.721 71.36C229.721 70.828 229.781 70.3287 229.903 69.862C230.024 69.3953 230.215 68.994 230.477 68.658C230.747 68.3127 231.088 68.042 231.499 67.846C231.909 67.65 232.409 67.552 232.997 67.552C233.23 67.552 233.468 67.5847 233.711 67.65C233.953 67.7153 234.187 67.8087 234.411 67.93C234.644 68.0513 234.854 68.2053 235.041 68.392C235.237 68.5787 235.395 68.7887 235.517 69.022H235.545V67.748ZM238.503 75V64.92H239.343V68.756C239.679 68.4013 240.024 68.112 240.379 67.888C240.743 67.664 241.177 67.552 241.681 67.552C242.129 67.552 242.544 67.6313 242.927 67.79C243.31 67.9393 243.632 68.2053 243.893 68.588C244.07 68.8493 244.173 69.12 244.201 69.4C244.238 69.6707 244.257 69.9553 244.257 70.254V75H243.417V70.268C243.417 69.6147 243.272 69.1247 242.983 68.798C242.694 68.4713 242.213 68.308 241.541 68.308C241.28 68.308 241.042 68.35 240.827 68.434C240.612 68.5087 240.416 68.6113 240.239 68.742C240.071 68.8727 239.926 69.022 239.805 69.19C239.684 69.358 239.59 69.5353 239.525 69.722C239.441 69.9553 239.39 70.1793 239.371 70.394C239.352 70.6087 239.343 70.842 239.343 71.094V75H238.503ZM251.028 71.192C250.674 71.3413 250.314 71.4393 249.95 71.486C249.586 71.5327 249.222 71.57 248.858 71.598C248.214 71.6447 247.71 71.7893 247.346 72.032C246.992 72.2747 246.814 72.6433 246.814 73.138C246.814 73.362 246.856 73.558 246.94 73.726C247.034 73.8847 247.15 74.02 247.29 74.132C247.44 74.2347 247.608 74.314 247.794 74.37C247.99 74.4167 248.186 74.44 248.382 74.44C248.718 74.44 249.045 74.398 249.362 74.314C249.68 74.23 249.96 74.104 250.202 73.936C250.454 73.7587 250.655 73.5393 250.804 73.278C250.954 73.0073 251.028 72.69 251.028 72.326V71.192ZM249.614 70.772C249.773 70.7533 249.96 70.7253 250.174 70.688C250.398 70.6507 250.58 70.5993 250.72 70.534C250.86 70.4687 250.944 70.3613 250.972 70.212C251.01 70.0533 251.028 69.9087 251.028 69.778C251.028 69.3487 250.888 68.9987 250.608 68.728C250.338 68.448 249.876 68.308 249.222 68.308C248.933 68.308 248.667 68.336 248.424 68.392C248.182 68.4387 247.967 68.5273 247.78 68.658C247.603 68.7793 247.454 68.9473 247.332 69.162C247.22 69.3673 247.146 69.6287 247.108 69.946H246.254C246.282 69.5167 246.38 69.1527 246.548 68.854C246.716 68.546 246.931 68.2987 247.192 68.112C247.463 67.916 247.771 67.776 248.116 67.692C248.471 67.5987 248.844 67.552 249.236 67.552C249.6 67.552 249.941 67.594 250.258 67.678C250.585 67.7527 250.865 67.8787 251.098 68.056C251.341 68.224 251.528 68.4527 251.658 68.742C251.798 69.0313 251.868 69.386 251.868 69.806V73.754C251.868 74.0807 251.924 74.2907 252.036 74.384C252.158 74.468 252.396 74.4447 252.75 74.314V74.972C252.685 74.9907 252.587 75.0187 252.456 75.056C252.335 75.0933 252.214 75.112 252.092 75.112C251.962 75.112 251.836 75.098 251.714 75.07C251.574 75.0513 251.462 75.0093 251.378 74.944C251.294 74.8693 251.224 74.7853 251.168 74.692C251.122 74.5893 251.089 74.482 251.07 74.37C251.052 74.2487 251.042 74.1227 251.042 73.992C250.688 74.384 250.282 74.6827 249.824 74.888C249.367 75.0933 248.872 75.196 248.34 75.196C248.023 75.196 247.715 75.154 247.416 75.07C247.127 74.986 246.87 74.8553 246.646 74.678C246.422 74.5007 246.245 74.286 246.114 74.034C245.984 73.7727 245.918 73.4647 245.918 73.11C245.918 71.878 246.763 71.15 248.452 70.926L249.614 70.772ZM255 71.402C255 71.8127 255.056 72.2047 255.168 72.578C255.28 72.942 255.438 73.264 255.644 73.544C255.858 73.8147 256.115 74.034 256.414 74.202C256.722 74.3607 257.067 74.44 257.45 74.44C257.879 74.44 258.252 74.356 258.57 74.188C258.896 74.0107 259.162 73.7727 259.368 73.474C259.573 73.1753 259.722 72.83 259.816 72.438C259.909 72.0367 259.946 71.6073 259.928 71.15C259.928 70.6927 259.862 70.2913 259.732 69.946C259.61 69.5913 259.438 69.2927 259.214 69.05C258.99 68.8073 258.728 68.6253 258.43 68.504C258.131 68.3733 257.804 68.308 257.45 68.308C257.058 68.308 256.708 68.3873 256.4 68.546C256.092 68.7047 255.835 68.924 255.63 69.204C255.424 69.4747 255.266 69.8013 255.154 70.184C255.051 70.5573 255 70.9633 255 71.402ZM255 77.856H254.16V67.748H255V69.022H255.028C255.149 68.7887 255.303 68.5787 255.49 68.392C255.686 68.2053 255.896 68.0513 256.12 67.93C256.353 67.8087 256.591 67.7153 256.834 67.65C257.076 67.5847 257.314 67.552 257.548 67.552C258.136 67.552 258.635 67.65 259.046 67.846C259.456 68.042 259.792 68.3127 260.054 68.658C260.324 68.994 260.52 69.3953 260.642 69.862C260.763 70.3287 260.824 70.828 260.824 71.36C260.824 71.864 260.758 72.3493 260.628 72.816C260.497 73.2827 260.296 73.6933 260.026 74.048C259.764 74.3933 259.428 74.6733 259.018 74.888C258.616 75.0933 258.14 75.196 257.59 75.196C257.076 75.196 256.582 75.084 256.106 74.86C255.639 74.6267 255.27 74.286 255 73.838V77.856ZM267.534 67.748H268.374V75H267.534V73.992C267.422 74.1227 267.296 74.258 267.156 74.398C267.016 74.538 266.853 74.6687 266.666 74.79C266.489 74.902 266.279 74.9953 266.036 75.07C265.794 75.154 265.514 75.196 265.196 75.196C264.711 75.196 264.305 75.1307 263.978 75C263.652 74.86 263.386 74.6687 263.18 74.426C262.984 74.1833 262.84 73.9033 262.746 73.586C262.662 73.2593 262.62 72.9047 262.62 72.522V67.748H263.46V72.508C263.46 73.1333 263.605 73.614 263.894 73.95C264.184 74.2767 264.66 74.44 265.322 74.44C265.668 74.44 265.976 74.3747 266.246 74.244C266.526 74.104 266.76 73.9127 266.946 73.67C267.133 73.4273 267.278 73.138 267.38 72.802C267.483 72.466 267.534 72.0973 267.534 71.696V67.748ZM270.89 72.732C271.02 73.3573 271.254 73.8007 271.59 74.062C271.935 74.314 272.425 74.44 273.06 74.44C273.368 74.44 273.634 74.4027 273.858 74.328C274.082 74.2533 274.264 74.1553 274.404 74.034C274.553 73.9033 274.665 73.7587 274.74 73.6C274.814 73.4413 274.852 73.2733 274.852 73.096C274.852 72.7413 274.735 72.48 274.502 72.312C274.278 72.1347 273.993 71.9993 273.648 71.906C273.302 71.8033 272.929 71.7193 272.528 71.654C272.126 71.5793 271.753 71.472 271.408 71.332C271.062 71.192 270.773 70.9913 270.54 70.73C270.316 70.4687 270.204 70.1 270.204 69.624C270.204 69.0173 270.423 68.5227 270.862 68.14C271.31 67.748 271.94 67.552 272.752 67.552C273.536 67.552 274.17 67.7293 274.656 68.084C275.15 68.4293 275.449 69.0127 275.552 69.834H274.698C274.623 69.274 274.408 68.882 274.054 68.658C273.708 68.4247 273.27 68.308 272.738 68.308C272.206 68.308 271.8 68.4247 271.52 68.658C271.24 68.882 271.1 69.1807 271.1 69.554C271.1 69.8807 271.212 70.1327 271.436 70.31C271.669 70.478 271.958 70.618 272.304 70.73C272.649 70.8327 273.022 70.926 273.424 71.01C273.825 71.094 274.198 71.2153 274.544 71.374C274.889 71.5233 275.174 71.7287 275.398 71.99C275.631 72.2513 275.748 72.6153 275.748 73.082C275.748 73.4273 275.673 73.7353 275.524 74.006C275.374 74.2673 275.169 74.4867 274.908 74.664C274.646 74.8413 274.334 74.972 273.97 75.056C273.615 75.1493 273.223 75.196 272.794 75.196C272.364 75.196 271.982 75.1307 271.646 75C271.319 74.8787 271.039 74.706 270.806 74.482C270.572 74.258 270.39 73.9967 270.26 73.698C270.129 73.3993 270.054 73.0773 270.036 72.732H270.89ZM279.416 72.452C279.406 71.9387 279.439 71.472 279.514 71.052C279.598 70.632 279.822 70.2307 280.186 69.848C280.391 69.6333 280.606 69.4233 280.83 69.218C281.054 69.0127 281.259 68.8073 281.446 68.602C281.632 68.3873 281.786 68.168 281.908 67.944C282.038 67.72 282.104 67.4773 282.104 67.216C282.104 66.964 282.052 66.7307 281.95 66.516C281.856 66.292 281.716 66.1007 281.53 65.942C281.343 65.774 281.114 65.6433 280.844 65.55C280.573 65.4567 280.265 65.41 279.92 65.41C279.574 65.41 279.266 65.4707 278.996 65.592C278.725 65.7133 278.496 65.8813 278.31 66.096C278.132 66.3107 277.997 66.5627 277.904 66.852C277.81 67.132 277.768 67.44 277.778 67.776H276.924C276.886 67.3093 276.938 66.8847 277.078 66.502C277.218 66.1193 277.423 65.7927 277.694 65.522C277.974 65.242 278.305 65.0273 278.688 64.878C279.07 64.7287 279.49 64.654 279.948 64.654C280.424 64.654 280.848 64.7193 281.222 64.85C281.604 64.9713 281.926 65.1487 282.188 65.382C282.449 65.606 282.65 65.8813 282.79 66.208C282.93 66.5347 283 66.894 283 67.286C283 67.6967 282.906 68.0513 282.72 68.35C282.542 68.6393 282.323 68.91 282.062 69.162C281.8 69.414 281.53 69.6707 281.25 69.932C280.97 70.184 280.727 70.4687 280.522 70.786C280.363 71.0287 280.274 71.2993 280.256 71.598C280.237 71.8873 280.228 72.172 280.228 72.452H279.416ZM279.332 75V73.768H280.354V75H279.332Z" fill="black"/>
</svg>
